<?xml version="1.0" standalone="no"?>
<!DOCTYPE svg PUBLIC "-//W3C//DTD SVG 20010904//EN"
 "http://www.w3.org/TR/2001/REC-SVG-20010904/DTD/svg10.dtd">
<svg version="1.0" xmlns="http://www.w3.org/2000/svg"
 width="70.000000pt" height="125.000000pt" viewBox="0 0 70.000000 125.000000"
 preserveAspectRatio="xMidYMid meet">
<metadata>
Created by potrace 1.15, written by Peter Selinger 2001-2017
</metadata>
<g transform="translate(0.000000,125.000000) scale(0.100000,-0.100000)"
fill="#000000" stroke="none">
<path d="M12 880 c-16 -27 -16 -74 1 -64 7 5 6 0 -3 -11 -8 -10 -10 -16 -4
-12 7 4 15 0 18 -9 4 -12 2 -15 -9 -10 -12 4 -15 -3 -15 -35 0 -25 5 -42 14
-45 8 -3 12 -12 9 -21 -5 -12 -7 -12 -14 -1 -5 8 -9 -15 -9 -57 l0 -70 60 -33
c58 -32 168 -67 178 -57 3 3 -2 5 -11 5 -9 0 -18 4 -21 9 -3 5 21 2 54 -7 37
-10 55 -19 47 -24 -6 -4 68 -8 166 -8 111 0 177 4 177 10 0 6 -11 10 -25 10
-26 0 -35 24 -12 33 9 4 9 6 0 6 -7 1 -13 6 -13 12 0 7 16 9 50 4 34 -5 50 -3
50 4 0 7 -24 11 -63 11 -36 0 -68 5 -75 12 -9 9 -15 8 -25 -7 -9 -11 -19 -15
-27 -10 -7 4 -50 7 -96 6 -84 -2 -84 -2 -84 23 0 14 -4 26 -8 26 -4 0 -13 14
-19 31 -11 28 -16 31 -40 25 -21 -5 -24 -4 -13 4 23 15 48 12 54 -8 5 -14 14
-17 36 -14 17 2 30 0 30 -6 0 -6 -12 -12 -27 -15 -16 -2 -7 -4 20 -4 26 0 50
3 53 8 3 5 10 9 15 9 6 0 8 -4 5 -9 -7 -11 20 -22 38 -15 9 3 17 -6 24 -25 6
-17 16 -31 21 -31 6 0 7 7 4 17 -5 12 -3 14 7 8 10 -6 12 -3 8 11 -4 15 0 20
19 22 14 1 21 -2 18 -8 -3 -6 -1 -10 5 -10 7 0 14 9 17 20 6 24 63 29 63 6 0
-12 20 -26 36 -26 2 0 4 77 4 170 l0 170 -338 0 c-326 0 -338 -1 -350 -20z
m91 -10 c10 -12 23 -18 29 -14 7 4 8 3 4 -5 -4 -6 -12 -9 -17 -6 -5 4 -9 1 -9
-6 0 -6 8 -9 20 -6 11 3 18 0 17 -7 -1 -6 6 -9 18 -6 47 10 281 4 303 -8 12
-7 20 -17 18 -21 -7 -11 15 -81 26 -81 4 0 8 7 8 15 0 8 5 15 10 15 6 0 10 -7
10 -15 0 -14 9 -18 79 -29 19 -4 40 -11 46 -16 18 -15 6 -60 -15 -60 -10 0
-24 -2 -32 -3 -7 -2 -10 -2 -5 0 4 3 7 10 7 17 0 8 -12 11 -35 8 -36 -4 -49
-21 -17 -23 15 -1 14 -2 -2 -6 -15 -4 -16 -7 -5 -15 12 -8 11 -9 -1 -5 -11 3
-15 16 -13 45 1 34 -2 42 -17 42 -9 0 -23 -7 -30 -15 -7 -8 -28 -15 -46 -15
-19 0 -34 -4 -34 -9 0 -5 -12 -8 -27 -7 -21 3 -27 8 -24 22 3 18 2 18 -15 3
-11 -9 -25 -14 -33 -11 -9 3 -11 0 -6 -9 6 -11 5 -12 -6 -1 -7 6 -29 12 -48
12 -41 0 -51 6 -73 38 l-15 23 -13 -31 c-13 -31 -36 -37 -87 -24 -22 6 -40 46
-23 52 6 2 8 8 4 13 -3 5 9 10 25 11 53 2 56 3 62 13 4 6 10 20 13 32 6 19 4
22 -11 16 -10 -3 -15 -3 -11 2 4 4 -7 19 -25 32 -17 13 -33 33 -33 43 -2 25 7
25 29 0z"/>
</g>
</svg>
