<?xml version="1.0" standalone="no"?>
<!DOCTYPE svg PUBLIC "-//W3C//DTD SVG 20010904//EN"
 "http://www.w3.org/TR/2001/REC-SVG-20010904/DTD/svg10.dtd">
<svg version="1.0" xmlns="http://www.w3.org/2000/svg"
 width="70.000000pt" height="125.000000pt" viewBox="0 0 70.000000 125.000000"
 preserveAspectRatio="xMidYMid meet">
<metadata>
Created by potrace 1.15, written by Peter Selinger 2001-2017
</metadata>
<g transform="translate(0.000000,125.000000) scale(0.100000,-0.100000)"
fill="#000000" stroke="none">
<path d="M343 867 c7 -45 -1 -55 -48 -59 -32 -2 -40 -7 -41 -23 -3 -73 -3 -73
-41 -83 l-38 -10 40 -2 c41 -2 40 -4 -7 -14 -19 -4 -26 -11 -22 -21 4 -8 1
-15 -5 -15 -6 0 -11 9 -11 19 0 25 -20 38 -31 20 -5 -8 -9 -10 -9 -5 0 5 -8 2
-17 -5 -11 -10 -14 -10 -9 -1 10 17 -5 15 -29 -4 -15 -12 -17 -18 -6 -21 10
-4 10 -7 1 -13 -7 -4 -13 -22 -15 -41 -2 -23 -9 -35 -24 -40 -25 -10 -27 -22
-6 -39 9 -8 15 -8 15 -2 0 6 -6 12 -12 15 -7 2 -10 7 -7 11 4 4 13 1 20 -7 7
-8 21 -12 30 -10 9 3 20 0 24 -7 4 -7 -1 -14 -14 -17 -11 -3 -19 -9 -16 -13 3
-5 13 -6 24 -3 10 3 33 -3 50 -12 37 -18 89 -12 124 15 12 9 38 20 57 23 19 3
62 13 95 22 66 17 98 23 133 24 16 1 27 11 37 35 8 19 20 36 27 39 11 3 10 9
0 27 -12 20 -12 21 7 15 12 -3 21 -3 22 2 0 4 2 18 4 29 4 17 -2 23 -25 28
-27 5 -30 9 -30 46 0 38 -2 40 -30 40 -29 0 -30 2 -30 46 0 32 -4 44 -12 41
-8 -2 -13 -21 -12 -46 l1 -41 -40 0 c-42 0 -42 1 -21 73 5 15 -2 17 -52 17
l-57 0 6 -33z"/>
</g>
</svg>
