<?xml version="1.0" standalone="no"?>
<!DOCTYPE svg PUBLIC "-//W3C//DTD SVG 20010904//EN"
 "http://www.w3.org/TR/2001/REC-SVG-20010904/DTD/svg10.dtd">
<svg version="1.0" xmlns="http://www.w3.org/2000/svg"
 width="70.000000pt" height="125.000000pt" viewBox="0 0 70.000000 125.000000"
 preserveAspectRatio="xMidYMid meet">
<metadata>
Created by potrace 1.15, written by Peter Selinger 2001-2017
</metadata>
<g transform="translate(0.000000,125.000000) scale(0.100000,-0.100000)"
fill="#000000" stroke="none">
<path d="M0 875 c0 -14 6 -25 13 -25 9 0 9 -2 1 -8 -8 -4 -12 -45 -13 -109
l-2 -103 26 10 c36 14 52 4 57 -34 3 -31 2 -34 -39 -44 -43 -12 -43 -12 -43
-58 0 -44 1 -45 28 -43 15 1 34 0 42 -3 8 -3 31 -10 51 -17 21 -6 108 -11 220
-11 l184 1 35 29 35 30 -23 19 c-18 16 -20 21 -9 28 21 12 29 69 12 83 -25 21
-5 33 45 26 81 -11 81 -11 79 128 l-1 122 -73 2 c-45 1 -77 -3 -81 -9 -4 -8 3
-9 22 -5 22 5 32 2 41 -13 11 -18 10 -19 -22 -16 -19 2 -35 -1 -35 -7 0 -5 5
-6 11 -2 7 4 10 1 7 -7 -3 -8 -11 -13 -17 -11 -6 1 -12 -4 -12 -10 -1 -7 -3
-23 -4 -36 -1 -12 -6 -26 -10 -30 -5 -4 -5 1 -2 11 5 13 3 17 -5 15 -7 -3 -14
-15 -14 -27 -2 -33 -21 -48 -29 -22 -3 11 -3 25 0 31 3 5 2 10 -3 10 -6 0 -13
11 -16 25 -10 41 -23 28 -31 -31 -7 -62 -5 -67 32 -72 15 -2 38 -9 51 -16 24
-13 23 -13 -25 -20 -28 -3 -63 -2 -77 4 -34 13 -46 13 -26 0 11 -7 5 -8 -20
-6 -52 5 -124 26 -132 40 -6 8 -11 7 -18 -4 -8 -12 -10 -11 -11 8 -1 12 -2 28
-3 35 -1 6 7 11 17 11 18 -2 23 11 8 20 -4 3 -16 -3 -26 -14 -19 -21 -51 -26
-75 -10 -13 8 -13 13 -2 31 10 15 10 19 1 14 -8 -5 -10 -4 -5 3 4 7 15 12 24
12 10 0 23 10 31 23 13 20 13 21 -3 8 -9 -8 -19 -11 -23 -7 -4 3 2 12 12 20
14 10 15 15 5 21 -7 4 -16 2 -20 -5 -5 -8 -9 -5 -13 9 -3 12 -1 19 4 15 5 -3
9 0 9 5 0 7 -27 11 -70 11 -68 0 -70 -1 -70 -25z"/>
</g>
</svg>
