<?xml version="1.0" standalone="no"?>
<!DOCTYPE svg PUBLIC "-//W3C//DTD SVG 20010904//EN"
 "http://www.w3.org/TR/2001/REC-SVG-20010904/DTD/svg10.dtd">
<svg version="1.0" xmlns="http://www.w3.org/2000/svg"
 width="100.000000pt" height="100.000000pt" viewBox="0 0 100.000000 100.000000"
 preserveAspectRatio="xMidYMid meet">
<metadata>
Created by potrace 1.15, written by Peter Selinger 2001-2017
</metadata>
<g transform="translate(0.000000,100.000000) scale(0.100000,-0.100000)"
fill="#000000" stroke="none">
<path d="M438 683 c-49 -51 -49 -127 0 -184 26 -31 26 -32 7 -46 -90 -62 -111
-82 -121 -113 -7 -19 -10 -38 -7 -42 2 -5 85 -8 184 -8 200 0 196 -2 160 68
-13 26 -36 47 -70 66 -34 18 -51 34 -51 47 0 10 5 19 11 19 20 0 51 90 44 128
-16 83 -105 120 -157 65z"/>
</g>
</svg>
