<?xml version="1.0" standalone="no"?>
<!DOCTYPE svg PUBLIC "-//W3C//DTD SVG 20010904//EN"
 "http://www.w3.org/TR/2001/REC-SVG-20010904/DTD/svg10.dtd">
<svg version="1.0" xmlns="http://www.w3.org/2000/svg"
 width="500.000000pt" height="500.000000pt" viewBox="0 0 500.000000 500.000000"
 preserveAspectRatio="xMidYMid meet">
<metadata>
Created by potrace 1.15, written by Peter Selinger 2001-2017
</metadata>
<g transform="translate(0.000000,500.000000) scale(0.100000,-0.100000)"
fill="#000000" stroke="none">
<path d="M1810 4975 c0 -23 -3 -25 -48 -25 -58 0 -72 -12 -72 -61 l0 -38 -52
-3 -53 -3 -3 -47 -3 -47 -52 -3 c-47 -3 -52 -5 -55 -28 -7 -66 -10 -70 -51
-70 -50 0 -71 -8 -71 -27 0 -27 -56 -68 -111 -82 -30 -8 -61 -17 -70 -22 -26
-13 -39 -79 -46 -228 l-6 -141 -38 0 c-72 0 -69 23 -69 -504 0 -354 3 -475 12
-484 7 -7 31 -12 55 -12 l43 0 1 -112 c1 -126 11 -263 21 -273 3 -3 31 -9 62
-12 l56 -6 0 -46 c0 -58 17 -91 55 -111 17 -8 34 -21 38 -27 5 -8 29 -13 57
-13 l48 0 7 -77 c9 -91 18 -113 48 -113 54 0 67 -10 67 -51 0 -44 18 -59 74
-59 31 0 36 -3 36 -22 0 -42 12 -67 33 -74 l22 -7 -22 -8 c-15 -5 -23 -20 -28
-48 -6 -38 -8 -40 -52 -47 -54 -8 -63 -25 -63 -125 l0 -69 -110 0 c-76 0 -111
-4 -117 -12 -4 -7 -21 -20 -38 -28 -16 -9 -34 -25 -40 -37 -8 -20 -18 -22
-123 -25 -125 -3 -142 -12 -142 -70 0 -26 -3 -28 -39 -28 -63 0 -71 -7 -71
-56 l0 -44 -99 0 c-55 0 -106 -3 -115 -6 -11 -4 -16 -19 -16 -49 l0 -42 -67
-6 c-129 -11 -144 -24 -159 -145 l-7 -52 -37 0 c-61 0 -70 -7 -70 -56 l0 -43
-52 -3 c-48 -3 -53 -5 -56 -28 -7 -67 -10 -70 -55 -70 -24 0 -48 -5 -55 -12
-8 -8 -12 -45 -12 -100 l0 -88 -34 0 c-71 0 -66 33 -66 -431 l0 -419 2465 0
2465 0 0 275 0 275 -30 0 -30 0 0 140 c0 156 -2 160 -74 160 l-36 0 0 84 c0
112 -2 116 -60 116 l-47 0 -6 90 c-3 49 -8 94 -12 100 -3 5 -28 10 -54 10
l-48 0 -5 81 c-3 55 -10 85 -21 96 -13 13 -46 17 -166 21 l-151 5 0 42 c0 48
-9 55 -70 55 -37 0 -38 1 -45 43 -4 23 -13 45 -19 49 -6 4 -55 8 -108 8 l-98
0 0 38 c0 21 -5 43 -12 50 -8 8 -51 12 -128 12 -110 0 -116 1 -125 22 -6 12
-23 29 -40 38 -16 8 -34 21 -38 28 -6 8 -41 12 -117 12 l-110 0 0 69 c0 100
-9 117 -64 125 l-46 7 0 100 0 99 94 0 c121 0 126 2 126 55 l0 42 53 9 52 9 9
53 c7 41 13 52 28 52 10 0 30 11 43 25 22 21 25 33 25 90 l0 65 39 0 c22 0 51
4 65 10 22 8 26 16 26 47 0 21 3 61 6 89 6 51 7 52 46 57 22 3 46 10 52 17 7
7 12 76 14 195 l3 184 52 3 52 3 3 385 c3 431 6 410 -70 410 l-38 0 0 138 c0
94 -4 142 -12 150 -7 7 -31 12 -54 12 l-41 0 -8 127 c-4 70 -11 135 -16 144
-6 12 -29 19 -79 24 -57 6 -76 12 -99 34 -16 15 -30 36 -32 46 -3 16 -14 21
-56 23 l-52 3 -7 50 -7 49 -53 0 -53 0 -3 48 -3 47 -112 3 c-113 3 -113 3
-113 27 l0 25 -620 0 -620 0 0 -25z"/>
</g>
</svg>
