<?xml version="1.0" standalone="no"?>
<!DOCTYPE svg PUBLIC "-//W3C//DTD SVG 20010904//EN"
 "http://www.w3.org/TR/2001/REC-SVG-20010904/DTD/svg10.dtd">
<svg version="1.0" xmlns="http://www.w3.org/2000/svg"
 width="104.000000pt" height="104.000000pt" viewBox="0 0 104.000000 104.000000"
 preserveAspectRatio="xMidYMid meet">
<metadata>
Created by potrace 1.15, written by Peter Selinger 2001-2017
</metadata>
<g transform="translate(0.000000,104.000000) scale(0.100000,-0.100000)"
fill="#000000" stroke="none">
<path d="M488 734 c-34 -18 -58 -62 -58 -104 0 -35 27 -100 41 -100 5 0 9 -11
9 -23 0 -18 -12 -30 -50 -51 -27 -15 -55 -37 -62 -49 -6 -12 -17 -28 -25 -35
-7 -7 -13 -20 -13 -27 0 -11 34 -15 178 -17 97 -2 179 -2 180 -1 2 1 1 16 -3
34 -7 31 -51 83 -90 105 -37 21 -40 40 -13 73 50 59 45 137 -13 186 -35 29
-44 30 -81 9z"/>
</g>
</svg>
