<?xml version="1.0" standalone="no"?>
<!DOCTYPE svg PUBLIC "-//W3C//DTD SVG 20010904//EN"
 "http://www.w3.org/TR/2001/REC-SVG-20010904/DTD/svg10.dtd">
<svg version="1.0" xmlns="http://www.w3.org/2000/svg"
 width="513.000000pt" height="340.000000pt" viewBox="0 0 513.000000 340.000000"
 preserveAspectRatio="xMidYMid meet">
<metadata>
Created by potrace 1.15, written by Peter Selinger 2001-2017
</metadata>
<g transform="translate(0.000000,340.000000) scale(0.100000,-0.100000)"
fill="#000000" stroke="none">
<path d="M2121 1911 c-55 -5 -67 -10 -85 -34 -21 -28 -34 -113 -35 -229 -1
-69 -4 -68 126 -36 73 18 118 22 268 22 188 1 304 -15 380 -51 19 -9 37 -15
39 -12 8 7 38 266 34 295 -4 39 -38 54 -123 54 -59 -1 -67 -3 -53 -14 9 -7 36
-18 60 -25 24 -7 51 -17 62 -23 13 -7 21 -6 27 4 12 18 12 -71 0 -108 -5 -16
-12 -55 -16 -86 l-6 -56 -53 17 c-75 26 -200 41 -345 41 -126 0 -308 -23 -325
-40 -6 -6 -21 -10 -34 -10 -22 0 -23 3 -18 38 3 20 8 72 11 115 5 57 11 79 23
86 27 13 420 34 529 27 l98 -6 -35 20 c-32 17 -55 19 -250 18 -118 -1 -244 -4
-279 -7z"/>
<path d="M3580 1890 c-18 -18 -20 -33 -20 -131 0 -147 3 -151 88 -143 96 10
109 17 122 63 11 42 0 153 -19 190 -22 40 -137 55 -171 21z"/>
<path d="M3237 1883 c-65 -4 -68 -5 -61 -26 4 -12 12 -44 18 -72 l12 -50 42 0
c23 0 42 -3 42 -7 0 -13 -85 -9 -98 4 -7 7 -12 30 -12 53 -1 36 -2 38 -15 21
-7 -10 -18 -15 -23 -12 -6 3 -12 0 -15 -6 -8 -22 -41 6 -52 43 -10 34 -11 34
-54 28 -24 -3 -49 -13 -56 -23 -14 -19 -31 -228 -20 -245 8 -14 55 -14 295 0
140 9 199 16 210 26 12 11 15 38 13 134 -1 66 -5 124 -8 129 -6 10 -70 10
-218 3z"/>
<path d="M4830 1759 c-62 -9 -101 -15 -109 -18 -2 0 2 -8 9 -16 7 -8 9 -15 5
-15 -4 0 -14 8 -21 18 -13 16 -15 16 -25 0 -12 -22 -31 -24 -23 -3 5 11 0 14
-20 13 -14 -1 -28 -8 -30 -15 -3 -7 -19 -13 -35 -13 -16 0 -32 -4 -35 -8 -3
-5 -23 -8 -46 -7 -35 1 -41 -2 -46 -22 -6 -22 -7 -22 -19 -7 -11 16 -13 16
-22 0 -6 -11 -26 -19 -57 -22 -46 -5 -47 -5 -41 19 5 20 2 25 -19 29 -44 9
-42 -28 3 -52 27 -14 197 -5 217 11 18 14 139 15 156 1 8 -6 18 -9 22 -5 14
15 75 30 88 22 18 -12 50 -11 43 1 -4 6 9 10 32 11 21 0 47 4 58 9 19 7 18 9
-7 19 -16 6 -40 9 -55 7 -16 -2 -22 -1 -15 1 6 2 12 8 12 13 0 5 16 9 35 8 19
-1 38 1 41 5 9 8 -5 27 -19 26 -7 -1 -41 -6 -77 -10z"/>
<path d="M5035 1676 c-5 -11 -3 -22 6 -28 11 -8 11 -9 -3 -5 -9 3 -19 1 -22
-6 -4 -7 -4 2 -1 18 4 28 4 28 -7 8 -12 -25 -16 -27 -37 -14 -17 11 -41 -8
-34 -26 3 -7 0 -13 -6 -13 -6 0 -17 -16 -25 -35 -18 -43 -30 -45 -24 -6 4 25
2 28 -11 21 -10 -5 -19 -3 -28 8 -10 14 -11 11 -8 -20 4 -30 2 -38 -11 -38 -9
0 -14 6 -11 13 3 8 1 20 -4 28 -7 11 -9 10 -9 -6 0 -15 -2 -17 -9 -6 -5 8 -14
10 -22 5 -7 -4 -27 -8 -43 -8 -17 0 -36 -6 -42 -14 -6 -8 -24 -16 -42 -18 -25
-3 -30 0 -25 12 5 14 1 15 -28 9 -19 -4 -38 -13 -42 -19 -6 -8 -10 -8 -14 2
-5 13 -33 17 -33 4 0 -10 -11 -11 -104 -13 -37 0 -73 4 -79 10 -6 6 -15 11
-20 11 -6 0 11 -18 36 -40 50 -44 104 -127 132 -201 12 -34 26 -52 54 -67 50
-28 124 -109 150 -163 l22 -44 -28 35 c-81 102 -143 141 -228 141 -107 0 -188
-56 -275 -192 -55 -85 -89 -112 -211 -162 -143 -59 -134 -62 -99 34 56 155
159 306 244 358 18 12 60 28 92 36 59 15 59 15 11 10 -55 -5 -112 -32 -162
-77 -73 -63 -162 -211 -214 -355 l-23 -62 -66 -10 c-37 -6 -105 -17 -152 -25
-114 -19 -62 -19 65 -1 55 8 110 15 122 15 22 0 72 -45 72 -64 -1 -5 5 -12 12
-17 8 -5 0 -13 -27 -24 -70 -29 -1047 -111 -1205 -101 l-96 7 -19 -28 c-11
-15 -20 -32 -20 -38 -1 -5 -2 -14 -3 -20 -1 -5 -5 -5 -9 2 -5 9 -19 9 -47 3
-48 -11 -141 -13 -131 -2 9 9 13 9 76 11 42 1 49 4 44 19 -5 16 -5 16 6 0 12
-20 36 -25 24 -6 -5 7 -8 24 -8 38 -1 23 -5 25 -58 28 -43 2 -58 7 -58 17 0
12 16 15 70 16 89 2 90 2 88 14 -2 6 -10 9 -18 8 -8 -1 -43 -5 -76 -9 l-62 -7
-3 53 c-2 28 -2 54 0 56 11 11 139 2 165 -11 18 -10 85 -20 175 -27 147 -11
330 -3 716 34 234 22 93 18 -236 -6 -277 -21 -354 -24 -449 -16 -144 12 -188
19 -196 31 -3 5 -13 9 -22 9 -15 0 -17 12 -15 92 1 51 5 131 9 177 7 81 6 84
-17 102 l-24 19 23 0 c22 0 23 3 21 78 -1 42 -4 94 -7 115 -4 37 -4 37 -52 37
-26 0 -62 -3 -79 -6 -28 -6 -31 -10 -31 -45 0 -36 2 -39 28 -40 22 0 20 -3
-18 -15 -52 -18 -197 -19 -217 -2 -7 6 -13 27 -13 48 0 38 0 38 -38 34 -46 -5
-335 -24 -363 -24 -19 0 -18 -3 11 -44 30 -41 34 -44 63 -35 18 5 33 9 34 9 9
0 1 -40 -9 -46 -8 -5 -9 -2 -5 9 5 13 1 17 -18 17 -18 0 -23 -4 -19 -15 13
-32 -18 -13 -49 31 -22 31 -33 41 -35 30 -2 -9 11 -34 28 -56 17 -22 28 -40
23 -40 -5 0 -17 14 -27 31 -26 43 -31 29 -7 -17 24 -44 28 -67 8 -39 -11 14
-16 15 -22 5 -5 -9 -4 -15 3 -18 7 -2 10 -8 6 -13 -3 -5 10 -9 30 -9 26 0 43
-8 67 -32 18 -18 29 -26 25 -18 -6 10 -6 12 1 5 16 -16 25 -65 12 -65 -6 0 -9
-9 -6 -19 3 -12 -4 -28 -19 -42 -13 -12 -24 -18 -24 -13 0 5 9 15 20 22 20 12
18 39 -4 54 -19 13 -26 9 -26 -14 0 -35 -37 -88 -60 -88 -11 0 -20 -4 -20 -10
0 -5 -6 -9 -12 -7 -7 1 -14 -8 -16 -20 -2 -16 2 -23 13 -23 13 0 16 -6 12 -21
-4 -15 -2 -19 9 -15 15 6 20 -9 5 -19 -6 -3 -10 -13 -10 -23 0 -9 -4 -44 -8
-76 l-8 -60 -73 -12 c-75 -13 -111 -26 -193 -69 -50 -27 -60 -29 -58 -18 6 39
-1 45 -49 39 -87 -11 -196 -10 -269 3 -72 13 -90 25 -55 38 9 4 22 13 27 20
18 24 86 42 113 30 13 -6 19 -13 13 -15 -6 -2 -9 -7 -6 -12 3 -4 -6 -11 -20
-14 -36 -9 -31 -23 10 -28 32 -4 34 -2 29 19 -5 20 -3 23 22 22 25 -2 26 -2 6
-6 -39 -7 -18 -28 30 -31 l46 -3 -19 38 c-10 20 -20 51 -21 68 -1 23 -3 20 -8
-15 l-7 -45 -1 39 c-2 38 -3 38 -34 32 -18 -3 -79 -28 -134 -56 -86 -42 -101
-53 -100 -72 1 -17 7 -23 24 -22 16 0 20 -2 12 -10 -16 -16 -44 6 -48 36 -2
18 4 30 22 42 20 13 24 22 20 44 -4 21 1 36 20 60 26 30 28 30 59 17 24 -10
31 -19 29 -34 -4 -25 -8 -25 53 -3 49 18 50 18 47 57 -2 30 0 36 7 25 9 -13
11 -13 11 3 0 9 5 17 11 17 5 0 8 -4 5 -8 -3 -5 -1 -22 4 -38 6 -23 8 -12 9
50 l1 79 -36 -6 c-25 -4 -34 -2 -31 6 2 7 17 11 35 9 31 -3 32 -2 31 35 0 33
-2 35 -9 16 -11 -27 -16 -28 -24 -7 -3 8 -2 13 2 10 13 -8 43 50 36 68 -3 9
-10 16 -16 16 -5 0 -7 4 -3 9 3 5 1 12 -4 15 -5 4 -9 -7 -9 -23 1 -16 -9 -42
-21 -57 -13 -17 -18 -30 -12 -32 6 -2 11 -8 11 -13 0 -6 -4 -7 -10 -4 -5 3
-19 0 -31 -8 -72 -51 -140 103 -74 168 32 33 90 34 138 1 l35 -24 1 141 c1 78
5 153 8 167 7 31 39 67 76 86 15 8 25 19 21 25 -3 6 -10 4 -17 -5 -13 -17 -15
-17 -157 -10 -101 6 -169 7 -210 4 -44 -3 -283 9 -326 16 -23 3 -50 2 -61 -4
-11 -6 -25 -7 -33 -2 -7 4 -24 4 -38 -1 -17 -7 -29 -6 -39 3 -9 7 -17 8 -21 2
-4 -5 -18 -8 -32 -7 -59 6 -181 9 -186 4 -3 -3 -32 -7 -65 -7 -32 -1 -70 -2
-84 -3 l-25 -1 0 -510 0 -510 305 0 305 0 64 -65 c35 -36 72 -65 81 -65 38 0
3 -13 -52 -20 -37 -4 15 -7 138 -6 126 1 201 -3 210 -10 8 -6 66 -10 146 -10
73 1 133 -2 133 -6 0 -4 21 -5 47 -2 26 3 50 6 53 6 3 0 32 -1 65 -2 58 -3 58
-3 20 -10 -41 -7 228 -13 459 -10 97 1 127 5 158 21 32 16 66 20 206 25 92 3
185 7 207 10 22 3 473 7 1003 9 l963 4 43 25 c24 14 56 40 70 57 l27 32 239
-5 240 -5 0 477 0 476 -36 2 c-20 2 -44 6 -53 11 -9 4 -36 7 -61 6 -25 -1 -58
2 -75 7 -36 11 -69 16 -150 23 -109 10 -131 14 -161 30 -16 8 -36 13 -44 10
-18 -5 -47 11 -38 21 11 10 209 23 371 23 91 1 147 5 147 11 0 6 15 9 33 9
l32 -1 -30 -8 c-27 -7 -25 -8 17 -9 l47 -1 -1 73 c0 74 -12 98 -35 69 -9 -12
-12 -13 -13 -3 0 7 -6 11 -14 8 -8 -3 -17 -1 -19 6 -3 7 -8 5 -12 -7z m-3151
-508 c-3 -13 -11 -25 -16 -27 -5 -2 1 -14 13 -27 19 -21 25 -22 38 -11 25 22
51 28 45 12 -3 -8 -13 -11 -22 -8 -14 5 -15 3 -5 -7 10 -11 16 -11 32 4 10 9
28 18 40 19 11 1 21 5 21 10 0 4 4 6 8 3 5 -3 28 -6 51 -8 34 -2 46 -7 54 -25
5 -13 14 -23 18 -23 19 0 39 13 39 26 0 21 35 17 74 -10 l36 -24 -43 -4 c-23
-3 -87 -3 -142 -1 -55 3 -125 4 -155 3 -49 -1 -60 3 -92 30 -22 19 -35 37 -31
46 3 8 -1 14 -8 14 -8 0 -3 7 11 14 36 20 42 19 34 -6z m2669 -72 c33 -23 114
-100 97 -91 -8 3 -5 -2 6 -12 32 -27 80 -193 56 -193 -5 0 -13 17 -17 37 -21
113 -134 233 -218 233 -14 0 -28 4 -31 9 -9 14 -86 -10 -97 -30 -5 -11 -15
-19 -21 -19 -18 0 24 41 62 60 37 19 41 20 66 20 8 0 13 4 10 9 -9 13 61 -5
87 -23z m-25 -153 c52 -39 75 -95 80 -193 3 -78 1 -90 -25 -140 -102 -199
-323 -74 -300 169 14 162 138 244 245 164z m-2425 -67 c70 -29 116 -115 118
-218 3 -115 -46 -209 -126 -248 -68 -33 -123 -22 -180 35 -96 96 -99 275 -7
377 59 65 126 84 195 54z m-773 -426 c67 -8 151 -10 232 -6 l128 6 20 -39 c11
-22 24 -42 30 -46 29 -18 3 -26 -77 -23 -49 1 -142 1 -208 0 -66 -1 -185 -2
-265 -2 l-145 -1 31 20 c17 10 48 39 68 64 26 32 43 44 59 42 12 -1 69 -8 127
-15z m1576 -9 c14 -17 48 -41 75 -54 l51 -24 -319 -1 c-175 -1 -358 -5 -407
-8 -51 -4 -87 -3 -85 2 3 5 14 25 27 45 l22 36 163 6 c89 4 176 11 192 16 17
5 81 10 143 10 l113 1 25 -29z m1138 -6 c9 -14 36 -39 59 -56 l42 -31 -275 6
c-151 3 -336 7 -410 7 l-135 1 41 19 c23 11 54 33 69 49 l29 30 282 0 282 0
16 -25z"/>
<path d="M4423 945 c-2 -7 -12 -11 -22 -8 -18 5 -71 -32 -71 -49 0 -7 5 -6 14
1 19 16 26 -5 15 -37 -6 -15 -5 -31 3 -45 7 -12 12 -25 13 -29 0 -5 3 -8 8 -8
51 0 60 1 51 8 -6 4 -4 13 7 24 16 15 17 14 22 -8 5 -29 -14 -47 -50 -48 -23
-1 -28 -7 -34 -36 -5 -23 -2 -44 8 -63 8 -16 12 -35 9 -42 -9 -25 20 -5 38 26
15 25 21 55 25 122 1 4 6 7 11 7 22 0 -17 -147 -46 -170 -21 -18 -17 -30 9
-30 37 0 81 53 80 97 -1 20 2 31 7 24 9 -16 20 20 19 64 0 29 -1 29 -11 8 -12
-25 -23 -29 -33 -12 -4 6 2 17 14 25 12 8 21 22 21 30 0 10 -5 9 -20 -6 -21
-21 -40 -19 -40 5 0 7 7 15 15 19 8 3 15 16 15 30 0 30 -47 89 -63 80 -9 -5
-9 -4 0 6 16 18 62 -7 88 -47 11 -18 23 -32 28 -33 16 0 5 22 -28 59 -37 40
-92 60 -102 36z"/>
<path d="M1516 1500 c71 -32 100 -64 110 -123 5 -34 8 -38 15 -22 l8 20 0 -20
c1 -18 7 -20 58 -17 197 9 368 23 371 31 2 5 24 6 50 3 26 -2 44 -1 40 3 -5 5
-98 7 -207 6 -131 -1 -201 2 -206 8 -3 6 5 15 18 20 18 7 26 19 30 48 3 21 8
45 12 54 5 14 1 16 -26 13 -17 -2 -37 -11 -44 -20 -9 -13 -22 -16 -60 -12 -26
3 -60 2 -75 -2 -20 -6 -40 -1 -76 16 -27 13 -56 24 -64 23 -8 0 12 -13 46 -29z"/>
<path d="M1954 1520 c-71 -15 -116 -38 -112 -57 2 -10 13 -19 26 -21 16 -3 22
-10 22 -28 0 -23 2 -24 73 -22 56 1 61 2 24 5 -45 4 -48 6 -45 30 4 37 32 43
213 50 118 4 165 2 218 -11 85 -20 84 -20 62 4 -34 37 -109 52 -280 56 -88 1
-178 -1 -201 -6z"/>
<path d="M1229 1415 c0 0 -3 -9 -6 -20 -14 -54 -22 -214 -23 -450 -1 -214 1
-266 14 -296 24 -58 68 -65 131 -22 22 15 67 37 100 49 l60 22 9 78 c5 47 4
178 -2 322 -11 263 -16 282 -70 303 -21 8 -109 14 -213 14z"/>
</g>
</svg>
