<?xml version="1.0" standalone="no"?>
<!DOCTYPE svg PUBLIC "-//W3C//DTD SVG 20010904//EN"
 "http://www.w3.org/TR/2001/REC-SVG-20010904/DTD/svg10.dtd">
<svg version="1.0" xmlns="http://www.w3.org/2000/svg"
 width="604.000000pt" height="340.000000pt" viewBox="0 0 604.000000 340.000000"
 preserveAspectRatio="xMidYMid meet">
<metadata>
Created by potrace 1.15, written by Peter Selinger 2001-2017
</metadata>
<g transform="translate(0.000000,340.000000) scale(0.100000,-0.100000)"
fill="#000000" stroke="none">
<path d="M263 3390 c86 -4 160 -10 164 -14 3 -3 -91 -6 -210 -6 -180 0 -217
-2 -217 -14 0 -11 25 -16 108 -21 153 -9 169 -12 71 -14 -47 0 -107 -4 -133
-7 -40 -6 -46 -10 -46 -30 0 -22 4 -24 53 -24 38 -1 48 -3 35 -10 -9 -6 -25
-9 -35 -8 -57 5 -53 28 -53 -328 l1 -326 24 6 c13 3 27 2 30 -4 3 -5 11 -10
16 -10 5 0 2 12 -7 26 -20 30 -7 46 30 36 18 -5 18 -7 4 -10 -22 -4 -23 -16
-3 -32 13 -11 14 -10 10 2 -4 9 1 18 11 22 12 4 15 2 10 -9 -3 -8 -1 -15 5
-15 5 0 12 7 15 15 6 14 8 13 19 -1 8 -12 14 -14 19 -5 4 6 12 8 18 5 19 -12
59 -13 52 -2 -5 7 5 9 26 6 l34 -5 -30 24 c-20 16 -23 22 -9 17 11 -4 28 -14
38 -23 11 -9 21 -11 25 -6 6 9 39 14 100 16 12 1 22 5 22 10 0 5 7 9 16 9 8 0
12 -5 9 -10 -4 -6 4 -5 19 1 14 7 23 16 19 21 -3 6 4 5 14 -1 11 -6 23 -7 27
-4 3 3 19 8 35 9 l28 4 -5 -133 c-7 -195 21 -369 79 -493 48 -103 161 -169
299 -175 25 -1 56 -9 70 -17 l25 -16 -25 -6 -25 -6 30 -20 c16 -10 71 -48 122
-84 115 -81 261 -171 537 -330 79 -45 340 -203 366 -220 14 -9 34 -20 45 -24
11 -3 35 -19 53 -36 19 -16 44 -32 55 -36 12 -4 33 -15 46 -25 14 -11 40 -19
65 -19 40 -1 42 -2 83 -75 24 -41 43 -80 43 -87 0 -15 141 -111 204 -139 25
-11 48 -23 50 -28 3 -5 40 -12 83 -16 42 -4 89 -11 103 -17 14 -5 64 -9 112
-9 86 1 143 -13 131 -31 -3 -6 -21 -16 -39 -24 -19 -8 -34 -19 -34 -24 0 -11
271 -144 390 -192 41 -17 81 -35 88 -40 6 -6 12 -7 12 -3 0 4 7 2 16 -6 9 -7
23 -14 32 -15 10 -1 49 -14 87 -29 127 -49 186 -55 507 -56 163 -1 300 1 305
4 4 2 75 8 158 12 l150 7 65 67 c51 53 77 71 120 85 30 10 69 24 85 31 17 7
68 28 115 46 47 19 103 45 125 59 47 29 79 47 120 68 17 9 32 19 35 23 3 5 48
15 98 22 51 8 97 18 102 23 5 5 12 41 15 79 3 39 8 84 10 100 4 25 4 26 -4 9
-9 -21 -11 -21 -102 -8 l-92 12 -83 -48 c-99 -56 -211 -106 -387 -170 l-128
-47 -50 -81 c-27 -45 -53 -83 -58 -86 -19 -12 -201 -26 -446 -36 -305 -12
-589 -2 -648 23 -45 20 -293 217 -392 312 -38 37 -60 60 -49 51 14 -11 23 -13
26 -6 2 7 20 7 58 1 210 -38 256 -45 268 -44 6 0 12 -8 12 -18 0 -11 6 -19 13
-19 8 0 19 -12 26 -27 14 -30 135 -188 152 -199 10 -6 8 11 -8 54 -4 9 46 12
228 12 129 0 263 5 299 10 73 10 155 21 184 24 25 3 32 22 16 42 -7 8 -11 16
-9 18 16 13 261 56 318 56 60 0 102 10 269 64 108 35 231 82 272 104 41 22
101 48 132 57 56 16 98 51 98 81 0 7 11 26 25 42 14 17 25 36 26 43 0 8 5 3
10 -10 5 -13 12 -22 15 -19 7 8 -25 85 -58 139 -16 27 -26 55 -23 65 3 11 -2
4 -10 -13 -8 -18 -20 -33 -26 -33 -5 0 -7 6 -3 13 5 7 0 6 -11 -3 -16 -13 -16
-15 -2 -18 65 -13 -160 -140 -373 -210 -225 -74 -269 -82 -470 -82 -211 0
-525 14 -682 31 -100 11 -108 10 -135 -8 -45 -32 -57 -37 -49 -25 4 7 2 12 -4
12 -6 0 -9 4 -6 9 3 5 -1 12 -10 15 -10 4 -13 2 -8 -6 8 -13 -63 29 -84 49 -7
7 -18 13 -24 13 -6 0 -9 2 -6 5 2 3 44 -9 93 -25 49 -17 94 -30 99 -29 6 0
-43 19 -109 43 -177 63 -311 124 -332 152 -10 14 -45 42 -78 63 -46 30 -74 40
-118 44 -34 3 -55 2 -52 -4 9 -14 -150 56 -229 101 -66 38 -73 45 -93 97 -25
63 -24 83 2 34 9 -19 20 -29 27 -25 8 5 9 1 4 -12 -6 -15 -5 -16 5 -7 10 10 6
27 -16 80 -101 240 -273 419 -431 449 -25 5 -32 9 -22 15 11 7 10 9 -1 9 -11
0 -9 4 5 15 19 15 19 15 0 8 -15 -5 -18 -3 -14 9 4 9 -18 41 -62 89 -38 41
-64 76 -58 78 5 2 0 8 -13 15 -29 14 -40 42 -13 32 10 -4 55 -12 99 -18 46 -6
85 -17 92 -25 16 -20 18 -20 38 -3 17 13 18 13 10 0 -8 -13 -6 -13 8 -1 15 12
16 7 12 -65 -4 -57 -3 -73 4 -56 13 28 31 29 31 1 0 -16 4 -19 20 -14 13 4 20
2 20 -6 0 -10 3 -10 12 -1 17 17 28 15 28 -5 0 -14 2 -15 9 -4 5 8 14 10 21 6
7 -4 16 -2 21 6 7 12 9 11 9 -1 0 -12 12 -15 52 -13 29 1 66 4 81 6 36 5 94
-37 267 -195 68 -62 121 -107 116 -100 -12 20 3 14 27 -12 12 -13 50 -35 85
-50 56 -25 64 -26 78 -12 8 9 20 16 25 16 6 0 17 16 25 35 8 19 19 35 24 35 6
0 10 7 10 15 0 9 12 18 30 22 48 9 57 37 26 84 -14 21 -26 44 -26 50 0 7 -3
10 -6 6 -3 -3 -15 2 -26 11 -63 53 -72 62 -62 62 14 0 331 -107 542 -182 83
-30 153 -51 153 -47 8 53 -1 170 -17 223 -4 13 -3 16 6 11 21 -13 70 -19 160
-19 81 -1 85 0 83 20 -2 19 5 23 60 34 34 6 107 12 162 13 97 1 104 0 224 -46
68 -26 125 -46 127 -44 6 6 -100 215 -133 260 l-38 52 50 -38 c28 -20 55 -41
60 -45 12 -10 29 -5 68 22 15 10 30 16 34 12 3 -3 12 -1 19 5 10 8 22 5 46
-11 l33 -22 -30 26 c-91 79 -273 183 -397 227 -97 34 -94 34 -77 12 12 -15 12
-16 -1 -8 -8 4 -28 18 -45 30 -42 30 -66 41 -30 13 84 -64 101 -100 70 -144
-13 -20 -18 -20 -72 -10 -32 6 -108 11 -170 11 -61 0 -106 4 -100 8 7 5 -3 7
-22 4 -32 -4 -33 -3 -15 11 18 13 17 14 -9 10 -21 -4 -25 -2 -17 7 7 9 6 16
-5 25 -11 9 -15 9 -15 1 0 -7 -4 -10 -10 -6 -5 3 -6 13 -3 23 6 15 5 15 -11 3
-15 -13 -18 -12 -22 6 -4 15 -23 25 -79 40 l-74 19 -10 -20 c-10 -21 -10 -21
-10 2 -1 12 -6 22 -12 22 -20 0 -239 83 -239 91 0 4 7 15 16 23 10 11 11 16 3
16 -7 0 -9 3 -5 7 4 5 13 1 19 -7 13 -17 95 -45 105 -36 3 3 -3 6 -13 6 -10 0
-16 3 -12 6 3 3 21 3 39 -1 29 -7 30 -9 13 -16 -12 -4 -14 -8 -5 -8 8 0 23 4
33 8 18 7 -42 26 -518 166 -104 31 -204 60 -221 66 -25 8 -34 19 -48 62 -10
28 -20 58 -23 65 -3 7 3 12 16 12 12 0 21 4 21 9 0 10 -32 20 -70 22 -45 3
103 17 194 18 49 0 87 4 84 7 -3 3 -120 7 -259 10 -243 4 -565 18 -676 30 -45
5 -275 -20 -294 -32 -4 -2 -42 5 -85 16 -94 24 -301 40 -290 22 4 -8 2 -10 -8
-6 -17 6 -62 -15 -103 -50 -25 -21 -140 -62 -457 -163 -13 -4 -17 -2 -12 5 4
7 2 12 -4 12 -7 0 -14 -9 -17 -20 -3 -11 -10 -20 -15 -20 -5 0 -7 4 -4 8 3 5
-4 23 -14 40 -24 39 -41 40 -135 8 -38 -13 -73 -22 -77 -19 -5 2 -8 1 -8 -4 0
-4 18 -21 40 -37 31 -23 37 -33 29 -43 -6 -7 -20 -13 -31 -13 -10 0 -38 -9
-61 -21 -23 -11 -53 -25 -67 -30 -24 -9 -24 -9 -5 6 16 13 17 17 6 24 -14 9
-54 -3 -75 -21 -6 -4 -22 -8 -37 -8 -15 0 -35 -8 -45 -17 -16 -16 -16 -16 -9
7 11 33 15 70 7 70 -3 0 -14 -8 -25 -17 -19 -17 -20 -17 -14 0 7 20 -3 22 -22
5 -11 -11 -12 -9 -6 11 5 17 4 22 -6 19 -8 -3 -15 -10 -15 -16 -3 -23 -4 -24
-16 -14 -17 13 -81 11 -90 -2 -5 -7 -11 -7 -19 1 -9 9 -16 10 -26 2 -9 -8 -13
-8 -13 -1 0 6 -7 9 -15 6 -10 -4 -15 0 -15 11 0 10 4 13 13 9 8 -5 7 -2 -2 9
-12 15 -12 17 4 10 15 -5 17 -3 12 12 -6 15 -5 16 8 5 8 -7 13 -16 10 -20 -3
-4 2 -10 10 -13 9 -4 12 -1 9 7 -3 8 -1 17 5 21 6 3 11 2 11 -4 0 -6 6 -8 14
-5 8 3 17 1 20 -5 4 -6 15 -7 29 -2 12 4 29 6 37 4 13 -4 13 -3 1 5 -8 6 -21
8 -30 5 -13 -4 -13 -3 -2 5 17 12 39 6 68 -21 29 -26 39 -17 13 11 -16 17 -17
22 -6 22 8 0 16 3 19 8 2 4 2 1 1 -5 -2 -7 1 -13 7 -13 6 0 8 -4 5 -9 -3 -5 4
-11 15 -14 16 -4 19 -2 15 10 -4 10 -2 13 8 10 22 -9 26 3 11 27 -13 20 -20
21 -110 16 -54 -3 -99 -2 -102 3 -2 4 -9 7 -14 7 -6 0 -8 -4 -5 -8 6 -10 -80
-9 -90 1 -4 4 -13 -1 -21 -11 -13 -16 -14 -16 -9 0 3 12 1 15 -9 12 -8 -3 -16
-13 -18 -22 -4 -15 -5 -14 -6 1 -1 11 -6 15 -12 11 -6 -3 -16 0 -21 7 -8 11
-9 10 -4 -3 3 -12 0 -18 -9 -18 -8 0 -15 7 -15 16 0 8 -4 13 -9 9 -5 -3 -12
-1 -16 5 -3 5 -11 10 -17 10 -5 0 0 -9 13 -20 13 -10 19 -19 12 -20 -6 0 -15
5 -18 10 -3 6 -16 10 -29 10 -29 0 -35 6 -29 31 5 18 7 18 17 3 11 -15 14 -15
28 -1 9 9 17 15 19 14 3 -1 -2 4 -10 11 -8 6 -11 12 -5 12 14 0 30 -13 37 -30
3 -10 6 -7 6 8 1 26 29 41 41 23 9 -15 8 -15 43 -2 18 7 27 7 27 0 0 -6 4 -7
10 -4 13 8 95 18 156 19 41 0 51 3 46 15 -3 9 -1 12 6 7 7 -4 12 -3 12 3 0 11
19 9 38 -3 7 -4 16 -6 19 -2 3 3 12 -1 20 -9 12 -13 17 -13 38 1 13 8 26 11
29 6 3 -4 22 -7 43 -5 67 7 103 8 103 5 0 -2 -26 -14 -57 -28 -59 -26 -126
-77 -116 -88 4 -3 13 0 21 7 13 10 15 9 9 -8 -5 -12 2 -7 18 12 28 35 97 61
225 88 57 12 199 47 300 76 19 5 76 19 125 30 123 27 205 49 238 66 16 8 31
12 34 9 3 -3 -2 -8 -11 -12 -9 -3 -16 -10 -16 -14 0 -11 133 -2 177 12 30 8
32 12 22 31 -9 19 -8 19 13 -4 l23 -25 140 6 c136 5 138 5 85 16 -31 7 -44 12
-29 13 15 0 51 -4 80 -9 90 -18 119 -20 143 -10 45 17 126 39 126 34 0 -3 -19
-14 -42 -24 l-43 -20 40 1 c22 0 67 6 100 13 54 12 57 14 32 21 -15 4 -26 9
-23 12 2 2 21 -1 43 -7 26 -8 71 -9 143 -3 l105 8 -162 14 c-90 8 -163 18
-163 22 0 10 21 13 63 10 15 -1 27 3 27 8 0 6 -15 11 -34 11 -19 0 -38 5 -42
11 -4 8 58 9 217 4 384 -12 669 -13 669 -4 0 5 -10 9 -22 9 -39 0 -5 19 40 22
39 3 42 5 30 20 -17 22 -133 38 -126 17 2 -7 15 -16 29 -19 18 -5 10 -8 -31
-13 -74 -10 -239 -12 -247 -3 -3 3 2 6 13 7 30 2 -24 17 -63 18 -18 1 -33 5
-33 9 0 5 -111 12 -247 16 -262 7 -336 13 -327 27 8 13 -34 11 -144 -7 -75
-12 -133 -15 -255 -10 -87 3 -167 11 -177 16 -12 6 -151 10 -362 9 -210 -1
-327 -5 -303 -10 22 -4 112 -9 200 -10 147 -2 154 -2 81 -10 -43 -5 -80 -10
-83 -12 -6 -7 124 -30 155 -27 15 1 119 2 232 3 166 0 212 -2 239 -15 l35 -16
-95 -6 c-153 -9 -716 -13 -619 -4 47 4 98 8 113 9 54 4 36 17 -46 33 -58 11
-142 16 -287 17 -204 2 -212 7 -37 25 158 16 16 24 -428 22 -340 -1 -426 -3
-312 -8z m1747 -370 c67 -11 190 -64 190 -83 0 -6 3 -7 7 -3 4 4 14 -8 23 -26
8 -18 30 -40 48 -50 27 -13 30 -17 15 -21 -12 -3 -8 -5 10 -6 16 0 26 -5 22
-11 -3 -5 0 -10 7 -10 10 0 10 -2 0 -9 -10 -6 -8 -10 10 -14 33 -9 147 -174
347 -499 l41 -68 -38 0 c-29 0 -38 4 -39 18 -2 30 -8 45 -21 61 -8 9 -28 39
-45 66 -18 28 -38 57 -45 65 -7 8 -28 36 -46 62 -18 26 -35 45 -38 43 -2 -2
-24 27 -49 66 -24 38 -65 99 -91 136 -26 36 -45 70 -41 76 3 5 1 7 -4 4 -6 -4
-33 19 -60 51 -58 66 -126 107 -233 139 -82 24 -71 29 30 13z m-107 -14 c68
-13 86 -21 74 -32 -4 -4 -13 -1 -22 6 -9 7 -15 8 -15 2 0 -6 -8 -13 -17 -15
-11 -3 -5 -5 12 -6 28 -2 29 -3 12 -15 -10 -8 -26 -12 -36 -9 -13 3 -26 -8
-47 -40 -15 -25 -31 -44 -35 -41 -4 2 -13 -3 -20 -12 -10 -12 -10 -20 -1 -34
11 -18 8 -19 -55 -13 -58 5 -66 4 -60 -10 5 -13 0 -15 -27 -10 -27 4 -34 1
-44 -21 -10 -22 -32 -37 -32 -21 0 22 85 162 165 271 12 17 60 17 148 0z
m1764 -369 c63 -67 127 -162 120 -180 -3 -9 -28 -17 -62 -21 -46 -5 -77 -1
-154 20 -53 14 -111 34 -130 45 -27 16 -32 17 -28 4 4 -9 1 -15 -8 -15 -18 0
-28 17 -19 32 4 7 9 26 11 43 4 41 23 95 33 95 4 0 33 -20 64 -44 60 -46 88
-50 106 -15 6 10 16 16 24 13 8 -3 12 2 11 15 -2 26 -22 49 -48 54 -19 4 -18
4 4 6 19 1 39 -12 76 -52z m-2261 14 c7 -7 105 -43 124 -46 3 0 14 -5 25 -11
11 -6 41 -17 68 -24 26 -7 50 -16 53 -21 2 -4 12 -5 21 -2 9 4 14 2 10 -3 -3
-5 12 -9 33 -9 21 0 36 3 33 8 -2 4 -14 5 -26 2 -19 -5 -20 -5 -5 5 21 13 78
-12 78 -34 0 -8 21 -26 46 -40 43 -24 56 -26 173 -27 102 -1 119 -3 91 -11
-57 -16 -248 -5 -295 18 -22 10 -43 23 -46 27 -3 4 -12 1 -19 -8 -12 -14 -10
-20 16 -40 l29 -23 -78 -4 c-80 -3 -123 5 -113 21 3 5 -3 7 -15 4 -11 -3 -30
-1 -42 5 -28 13 -96 35 -122 38 -11 1 -32 7 -48 13 -26 10 -27 10 -16 -11 l11
-21 -28 21 c-16 11 -51 43 -78 70 l-48 50 38 25 c22 13 46 26 54 30 23 9 65 8
76 -2z m147 -1038 c41 -4 144 -38 197 -63 228 -111 370 -185 370 -192 0 -17
-48 -7 -108 22 -34 16 -72 31 -84 34 -13 2 -32 7 -43 11 -17 6 -16 3 5 -15
l25 -21 -25 12 c-46 22 -395 222 -405 232 -5 5 1 4 15 -3 13 -7 38 -15 53 -17z
m1180 -400 c4 -3 -2 -16 -12 -27 -19 -21 -19 -22 0 -104 24 -104 28 -111 78
-142 38 -24 52 -40 33 -40 -5 0 -28 14 -50 30 -23 17 -44 30 -46 30 -3 0 -6
-12 -8 -27 l-3 -28 -31 31 c-26 25 -33 41 -39 95 -4 35 -10 59 -12 53 -3 -9
-16 -9 -52 1 -43 11 -49 11 -63 -7 -10 -12 -18 -16 -23 -9 -3 6 -1 11 4 11 6
0 11 5 11 11 0 6 10 19 22 29 22 17 24 17 60 -1 l38 -19 0 29 c0 32 19 81 31
81 4 0 10 -6 12 -12 3 -8 6 -6 6 5 1 17 31 24 44 10z"/>
<path d="M3453 3275 c-13 -9 -24 -11 -28 -6 -3 5 -19 9 -35 9 -16 -1 -27 -5
-24 -10 3 -4 -12 -8 -32 -8 -21 0 -34 -3 -30 -7 4 -5 11 -8 14 -9 6 0 98 -5
357 -20 109 -7 154 -23 65 -25 l-55 -1 55 -13 c70 -18 205 -20 565 -9 l290 8
-95 13 c-52 7 -171 13 -265 13 -373 1 -545 16 -545 46 0 11 -16 14 -65 14 -39
0 -65 4 -65 10 0 7 -6 8 -16 2 -9 -5 -25 -7 -35 -5 -12 3 -19 0 -20 -8 0 -9
-3 -7 -7 4 -7 16 -9 16 -29 2z"/>
<path d="M5364 1990 c3 -14 8 -42 11 -62 6 -32 24 -53 120 -139 63 -55 117
-100 122 -100 18 2 7 29 -37 86 -65 85 -181 206 -191 199 -5 -3 -14 5 -19 18
-10 23 -10 23 -6 -2z"/>
<path d="M3301 1707 c1 -30 1 -30 8 -7 4 15 10 20 14 13 9 -14 377 -198 394
-196 7 0 11 -3 10 -7 -1 -4 9 -17 23 -30 21 -18 22 -20 5 -15 -11 4 -62 23
-113 41 -51 19 -100 34 -109 34 -15 0 -15 -2 0 -18 10 -10 17 -24 17 -30 0 -7
7 -12 15 -12 8 0 15 -4 15 -9 0 -5 18 -28 41 -52 22 -24 48 -57 56 -74 9 -16
37 -57 62 -90 l45 -60 -39 30 c-22 16 -34 22 -27 13 37 -47 164 -106 191 -89
26 16 -92 304 -146 353 -36 34 -341 191 -359 184 -7 -3 -14 1 -17 8 -3 7 -23
19 -46 28 l-41 16 1 -31z"/>
</g>
</svg>
