<?xml version="1.0" standalone="no"?>
<!DOCTYPE svg PUBLIC "-//W3C//DTD SVG 20010904//EN"
 "http://www.w3.org/TR/2001/REC-SVG-20010904/DTD/svg10.dtd">
<svg version="1.0" xmlns="http://www.w3.org/2000/svg"
 width="605.000000pt" height="340.000000pt" viewBox="0 0 605.000000 340.000000"
 preserveAspectRatio="xMidYMid meet">
<metadata>
Created by potrace 1.15, written by Peter Selinger 2001-2017
</metadata>
<g transform="translate(0.000000,340.000000) scale(0.100000,-0.100000)"
fill="#000000" stroke="none">
<path d="M4022 3376 c-10 -22 -14 -24 -75 -19 -74 6 -92 -7 -50 -34 33 -22
183 -65 183 -52 0 17 72 10 85 -8 12 -16 20 -16 91 -4 44 7 80 14 82 16 2 2
-3 12 -10 24 -10 17 -23 21 -62 21 -27 0 -46 3 -42 8 4 4 22 7 39 7 22 0 33 5
35 18 3 13 -3 17 -26 17 -16 0 -35 7 -42 15 -15 18 -42 19 -58 3 -9 -9 -12 -9
-12 0 0 8 -21 12 -63 12 -58 0 -65 -2 -75 -24z"/>
<path d="M4500 3390 c0 -5 -12 -13 -27 -16 -16 -4 -31 -11 -34 -16 -3 -5 -29
-5 -62 0 -32 5 -57 5 -57 1 0 -11 35 -29 56 -29 10 0 26 -8 36 -17 16 -15 21
-15 28 -3 7 12 11 12 27 -2 22 -19 91 -43 118 -40 11 2 29 -4 40 -12 17 -13
18 -17 6 -25 -9 -6 -22 -6 -32 0 -26 13 -55 11 -69 -6 -12 -15 -56 -17 -75 -4
-5 4 -29 10 -52 14 -31 5 -43 3 -43 -5 0 -7 -10 -28 -21 -47 l-21 -34 -23 21
-23 22 -16 -24 c-14 -22 -22 -24 -70 -20 -33 3 -56 0 -60 -7 -4 -6 0 -11 10
-11 15 0 93 -38 104 -51 10 -13 45 -18 59 -10 21 13 42 -9 25 -26 -25 -26
-370 -45 -490 -27 -29 4 -43 2 -53 -9 -8 -10 -9 -17 -1 -22 5 -3 10 -12 10
-19 0 -18 -59 -29 -76 -15 -11 9 -16 5 -24 -16 -5 -14 -10 -33 -10 -41 0 -12
-15 -14 -82 -11 l-83 3 2 28 c3 36 2 35 52 44 l42 7 -28 32 c-16 18 -41 36
-55 42 -32 12 -324 7 -356 -6 -19 -7 -21 -11 -10 -20 19 -16 85 -31 148 -32
32 -2 61 -8 71 -17 14 -12 18 -13 22 -2 9 25 25 -6 20 -39 -5 -31 -7 -33 -42
-27 -20 3 -61 7 -91 9 -30 1 -65 6 -77 10 -15 5 -23 3 -23 -4 0 -6 -5 -11 -11
-11 -6 0 -8 7 -5 16 5 13 0 15 -35 9 -27 -5 -44 -3 -49 4 -5 9 -14 9 -34 1
-15 -5 -59 -10 -98 -10 -69 0 -93 -10 -29 -12 17 -1 31 -5 31 -10 0 -4 20 -8
44 -8 27 0 46 -5 48 -12 4 -12 24 -16 96 -19 12 -1 22 -6 22 -11 0 -6 7 -7 16
-4 8 3 13 2 10 -3 -3 -5 4 -12 17 -16 21 -6 20 -7 -8 -16 -16 -5 -38 -7 -47
-4 -10 3 -28 8 -40 11 -20 6 -21 5 -10 -8 10 -13 10 -17 -4 -22 -19 -7 -64 3
-64 15 0 12 -102 11 -135 -1 -23 -9 -25 -13 -15 -25 9 -10 9 -15 1 -15 -6 0
-11 -9 -11 -20 0 -17 -7 -20 -39 -20 -23 0 -41 5 -44 13 -2 8 -26 11 -80 9
-45 -2 -77 1 -77 7 0 5 6 12 13 14 7 3 6 6 -5 6 -25 1 -31 19 -13 37 12 12 27
15 58 11 23 -3 58 -1 77 4 33 10 35 14 36 51 1 22 -2 35 -6 28 -9 -14 -71 -4
-82 14 -5 7 -8 5 -8 -6 0 -29 -18 -30 -32 -1 -10 22 -27 32 -73 47 -33 10 -68
23 -78 28 -19 9 -41 2 -32 -12 3 -5 0 -12 -6 -15 -5 -4 -8 -14 -5 -24 5 -12 2
-11 -9 3 -8 11 -15 26 -15 34 0 7 -6 12 -12 9 -7 -2 -12 -13 -10 -25 4 -26
-14 -37 -34 -21 -14 12 -14 14 1 25 9 7 12 14 8 17 -13 8 -85 -9 -92 -22 -9
-14 -51 -2 -51 15 0 7 -8 18 -19 23 -16 9 -17 7 -13 -14 4 -23 2 -24 -32 -18
-33 5 -36 3 -37 -18 -1 -21 -2 -21 -6 -4 -3 11 -9 24 -14 30 -5 5 -9 20 -9 32
0 22 -3 23 -42 19 -23 -3 -48 -1 -55 6 -7 6 -32 11 -56 11 -23 -1 -46 2 -52 5
-5 4 -14 7 -20 7 -42 2 -75 18 -75 37 0 17 -2 18 -15 5 -8 -9 -24 -13 -36 -10
-12 3 -24 0 -29 -7 -5 -9 -9 -9 -14 -1 -4 6 -1 11 6 11 30 1 -29 23 -70 27
-44 3 -44 3 -24 -14 40 -34 32 -45 -33 -49 -35 -2 -62 1 -66 7 -4 7 -25 8 -67
2 -33 -5 -67 -6 -74 -3 -7 4 -40 11 -73 15 -33 4 -63 12 -67 19 -7 10 -30 11
-208 4 -63 -3 -264 24 -294 39 -20 11 -60 15 -133 15 -56 -1 -103 2 -103 6 0
4 -80 6 -177 4 -143 -3 -181 -7 -195 -20 -24 -21 -22 -32 5 -32 50 0 64 -47
17 -56 -32 -7 -41 -24 -12 -24 9 0 29 -6 44 -14 28 -15 162 -11 153 4 -6 10 5
40 15 40 4 0 10 -9 13 -20 5 -20 64 -50 85 -42 6 2 12 11 12 20 0 12 3 13 12
4 19 -19 28 -14 28 13 0 20 5 25 25 25 25 0 49 -34 38 -52 -2 -4 2 -5 10 -2
10 4 16 -5 21 -30 5 -27 13 -37 31 -42 13 -3 23 -11 22 -17 -1 -6 16 -14 38
-17 22 -3 45 -8 50 -12 6 -3 35 -2 65 2 39 6 61 4 76 -5 11 -7 42 -16 68 -20
28 -5 43 -11 36 -15 -9 -6 -9 -9 1 -13 8 -3 -6 -4 -30 -3 -25 2 -49 10 -55 18
-8 11 -19 12 -43 6 -18 -5 -33 -13 -33 -19 0 -7 -14 -10 -35 -7 -37 4 -40 2
-25 -22 5 -9 5 -19 -2 -27 -8 -10 -6 -13 6 -13 9 0 16 5 16 10 0 12 58 8 78
-4 7 -4 20 -2 28 5 18 15 319 21 347 7 12 -6 23 -6 31 1 7 6 16 8 19 5 3 -4
46 -6 94 -7 76 0 88 3 85 17 -2 9 2 16 8 16 5 0 10 -4 10 -9 0 -11 49 -30 75
-29 36 1 45 -2 45 -16 0 -8 -5 -16 -12 -18 -38 -13 78 -62 140 -60 18 1 43 -5
55 -12 12 -8 43 -17 68 -21 48 -7 77 -20 67 -30 -3 -3 -31 -8 -62 -11 -44 -5
-55 -3 -53 8 2 7 2 10 0 6 -3 -5 -12 -8 -21 -8 -15 0 -15 -2 -2 -10 23 -15 5
-12 -40 6 -22 9 -40 21 -40 26 0 6 -10 8 -22 4 -36 -10 -178 -18 -204 -12 -13
4 -24 13 -24 20 0 8 -11 16 -25 18 -14 3 -25 2 -25 -1 0 -10 -52 -12 -64 -2
-14 11 -73 21 -166 27 -41 3 -99 14 -128 25 -66 24 -100 26 -82 4 7 -8 18 -15
25 -15 7 0 16 -8 19 -17 4 -10 4 -14 0 -10 -4 4 -14 1 -23 -7 -13 -11 -27 -12
-75 -4 -43 8 -60 7 -66 -1 -9 -16 -88 -11 -94 5 -6 16 -46 6 -46 -11 0 -7 6
-15 13 -18 6 -2 9 -8 5 -12 -10 -10 -48 24 -48 42 0 8 5 11 10 8 6 -3 10 3 10
14 0 24 -22 28 -40 6 -9 -10 -9 -15 -1 -15 6 0 11 -4 11 -10 0 -5 -13 -10 -29
-10 -21 0 -32 -6 -36 -20 -7 -22 -20 -26 -30 -10 -4 6 -10 8 -15 5 -4 -3 -13
2 -20 10 -7 8 -28 15 -47 15 -19 0 -47 7 -64 15 -16 9 -35 15 -42 14 -24 -3
-34 2 -67 31 -18 16 -35 29 -39 28 -3 0 -13 1 -21 2 -22 4 86 18 148 19 28 1
52 5 52 10 0 14 -57 21 -202 25 -112 3 -135 1 -131 -10 3 -8 9 -12 13 -9 4 3
23 -2 41 -10 l34 -14 -32 -1 c-17 0 -33 -5 -35 -10 -2 -6 -33 0 -77 14 -41 13
-80 22 -87 19 -12 -4 -14 -236 -14 -1394 l0 -1389 3025 0 3025 0 0 1700 0
1700 -719 0 c-491 0 -722 -3 -726 -10 -5 -8 -12 -7 -22 1 -12 10 -17 10 -25
-2 -7 -11 -11 -11 -15 -1 -6 14 -43 17 -43 2z m-3321 -354 c7 -8 23 -17 36
-20 14 -4 25 -11 25 -16 0 -6 9 -10 20 -10 11 0 20 -4 20 -9 0 -4 11 -6 24 -4
22 5 41 -10 41 -32 0 -5 12 -11 28 -13 33 -4 35 -15 5 -28 -28 -12 -28 -12
-101 10 -32 10 -64 15 -72 12 -9 -3 -12 0 -9 8 3 8 -4 16 -18 20 -18 5 -20 8
-9 15 11 7 11 10 -2 17 -22 13 -34 64 -14 64 8 0 20 -6 26 -14z m976 -541 c77
-9 151 -16 165 -16 14 0 32 -2 40 -5 13 -4 13 -6 0 -14 -12 -7 -9 -10 12 -10
15 0 30 -5 33 -10 4 -6 16 -8 28 -5 20 5 20 5 4 -5 -12 -8 -16 -18 -12 -31 10
-32 -5 -21 -17 11 -10 30 -11 31 -63 26 -37 -4 -55 -2 -59 7 -3 8 -7 9 -13 1
-10 -13 -73 -13 -66 0 4 5 -4 6 -18 1 -13 -4 -42 -10 -64 -12 -22 -3 -45 -10
-52 -15 -7 -5 -17 -7 -22 -4 -22 14 -131 18 -146 6 -11 -10 -18 -9 -30 3 -8 9
-12 23 -9 31 4 11 1 16 -10 16 -20 0 -20 5 2 30 20 23 57 22 297 -5z m1156
-26 c11 -6 27 -8 35 -5 8 3 14 0 14 -6 0 -6 6 -5 17 3 13 11 17 11 20 2 3 -7
14 -13 24 -13 25 0 71 -23 88 -44 14 -17 80 -21 115 -7 18 7 18 8 2 14 -10 4
-23 4 -28 0 -7 -3 -8 -1 -4 5 5 8 -2 12 -22 12 -19 0 -29 5 -29 15 0 12 14 15
63 15 34 0 69 2 76 5 8 3 27 -6 42 -20 22 -20 24 -25 9 -25 -10 1 -29 7 -43
15 -14 8 -34 14 -45 14 -12 1 -1 -8 25 -20 29 -13 75 -22 130 -26 47 -2 99 -8
115 -13 17 -5 45 -8 64 -9 36 0 129 -19 146 -30 13 -8 49 -7 98 3 22 5 42 4
50 -2 6 -5 20 -8 30 -7 9 2 17 0 17 -3 0 -4 39 -5 87 -2 l86 5 4 30 c7 64 13
75 38 75 13 0 28 -6 32 -14 19 -32 78 -49 200 -57 68 -4 128 -11 134 -15 25
-15 -13 -23 -129 -25 -99 -3 -125 0 -132 11 -6 8 -10 10 -10 4 0 -5 7 -19 15
-30 21 -28 20 -29 -32 -29 -55 0 -75 9 -66 30 6 17 -22 21 -32 4 -4 -5 -17 -9
-28 -8 -12 0 -51 1 -87 0 -50 -1 -61 -4 -52 -13 24 -24 12 -31 -40 -25 -33 3
-46 2 -33 -3 11 -5 37 -9 57 -9 25 -1 37 -5 35 -13 -1 -10 25 -13 101 -14 57
-1 118 -5 135 -9 18 -3 70 -9 117 -11 47 -3 87 -7 89 -10 8 -8 -21 -32 -44
-37 -17 -3 -25 0 -25 10 0 8 -5 11 -10 8 -6 -4 -17 -1 -25 5 -11 9 -20 8 -39
-8 -14 -11 -22 -22 -19 -26 3 -3 -3 -6 -15 -6 -11 0 -24 5 -27 11 -5 7 -11 5
-18 -5 -13 -16 -72 -23 -100 -11 -9 4 -23 2 -31 -4 -22 -19 -128 -8 -163 17
-17 12 -34 18 -38 14 -5 -4 -5 -2 -2 4 4 7 0 17 -8 24 -8 7 -15 9 -15 5 0 -4
-6 -2 -14 4 -10 8 -16 9 -21 1 -3 -6 -10 -8 -15 -5 -5 3 -11 -3 -14 -13 -9
-27 -49 -21 -56 8 -7 29 -27 37 -33 13 -4 -14 -5 -14 -6 4 l-1 22 -27 -25
c-15 -14 -33 -22 -40 -20 -7 3 -13 2 -13 -2 0 -7 -63 -42 -75 -42 -2 0 -2 7 1
15 4 8 1 15 -5 15 -6 0 -11 7 -11 15 0 9 -9 15 -25 15 -14 0 -25 4 -25 9 0 5
-5 22 -12 38 -6 15 -10 32 -9 36 0 4 -7 4 -16 -1 -10 -6 -29 -9 -43 -7 -14 1
-31 3 -38 4 -7 0 -12 9 -10 19 4 23 -40 19 -58 -6 -11 -14 -13 -14 -14 -2 0
12 -3 11 -11 -3 -6 -10 -8 -25 -5 -33 3 -8 1 -14 -3 -14 -15 0 -19 24 -8 45 9
17 8 18 -4 8 -10 -8 -20 -9 -29 -3 -19 12 -33 13 -25 1 3 -5 1 -12 -5 -16 -5
-3 -10 1 -10 9 0 9 -5 16 -12 16 -7 0 -22 12 -34 27 -21 26 -24 27 -62 17 -34
-9 -41 -8 -51 8 -17 27 -50 23 -62 -9 l-10 -26 -15 21 c-8 12 -21 22 -27 22
-17 0 -45 -35 -53 -65 -3 -14 -10 -25 -14 -25 -4 0 -6 -10 -5 -22 1 -13 4 -23
5 -23 1 0 4 -10 5 -22 2 -22 -1 -23 -61 -23 -78 0 -94 6 -94 36 0 13 -6 24
-13 24 -15 0 -54 -38 -49 -49 1 -3 -47 -7 -106 -9 l-108 -3 1 28 c0 20 -6 28
-20 31 -45 7 -49 12 -27 28 23 16 30 54 11 54 -6 0 -8 7 -5 16 4 11 -1 18 -14
21 -11 3 -17 9 -15 14 3 4 13 5 22 2 11 -4 14 -3 9 5 -11 18 5 14 19 -5 10
-14 30 -16 125 -15 104 1 143 8 113 19 -7 3 -13 11 -13 19 0 10 8 13 28 10 15
-2 31 -5 35 -5 5 -1 7 -11 5 -23 -3 -22 1 -23 66 -26 63 -3 68 -1 61 15 -4 10
-7 28 -7 40 1 13 -5 23 -16 26 -10 3 -5 5 12 6 20 1 27 5 23 15 -5 12 4 14 44
11 27 -3 59 -10 70 -16z m-1887 -49 c19 0 22 -4 19 -25 -6 -27 24 -66 35 -48
7 11 111 10 149 0 10 -3 35 -8 56 -12 l38 -6 -38 -38 c-21 -20 -41 -34 -44
-29 -11 16 -88 12 -108 -6 -12 -11 -27 -15 -39 -12 -45 15 -213 14 -241 0 -16
-8 -48 -14 -72 -13 -24 0 -71 1 -104 1 -172 0 -186 2 -181 14 3 7 -4 24 -15
38 -11 14 -17 26 -12 26 4 0 0 5 -9 11 -26 14 -24 42 2 34 11 -4 54 -7 95 -7
42 -1 78 -5 81 -9 3 -5 -9 -9 -26 -9 -18 0 -29 -4 -25 -10 3 -5 30 -10 58 -9
42 0 48 2 29 10 -32 12 -19 31 14 19 14 -6 61 -10 104 -10 85 0 120 7 99 21
-7 4 -23 3 -35 -1 -14 -6 -26 -5 -29 0 -10 16 34 21 75 9 26 -8 44 -9 50 -3 6
6 0 10 -17 12 -15 1 -31 9 -36 17 -6 11 -13 13 -27 5 -26 -14 -33 -13 -27 4 4
10 -3 16 -21 19 -15 2 2 5 39 6 36 0 70 -4 76 -10 8 -8 17 -6 35 10 12 12 24
17 26 11 2 -5 14 -10 26 -10z m661 -37 c28 -1 69 -3 93 -3 45 -1 55 -16 27
-44 -8 -8 -15 -27 -15 -43 0 -22 -2 -25 -11 -13 -8 11 -12 12 -16 3 -7 -19
-33 -16 -33 3 0 9 -9 18 -20 21 -13 3 -20 14 -20 29 0 31 -7 30 -32 -2 -13
-16 -27 -24 -39 -21 -11 3 -16 0 -13 -8 4 -8 -6 -12 -30 -10 -39 2 -43 -3 -23
-24 19 -21 -70 -7 -93 14 -15 14 -22 15 -42 4 -13 -6 -26 -16 -29 -22 -4 -5
-14 4 -23 22 -9 17 -21 31 -26 31 -6 0 -10 5 -10 11 0 6 5 7 13 2 11 -7 197
-22 197 -15 0 1 -9 11 -20 22 -22 22 -40 26 -40 10 0 -5 -4 -10 -10 -10 -5 0
-10 10 -10 21 0 20 4 21 48 15 41 -5 52 -3 67 14 14 16 21 17 39 8 11 -6 44
-13 71 -15z m1470 -198 c123 -13 303 -34 970 -116 193 -23 638 -84 733 -101
117 -19 56 -18 -127 3 -100 11 -189 18 -197 15 -31 -12 -11 -21 54 -23 37 -2
90 -5 117 -8 28 -3 108 -7 178 -10 70 -2 145 -9 166 -15 21 -6 45 -8 53 -5 11
4 20 -7 31 -37 18 -51 39 -149 33 -156 -3 -2 -18 26 -35 62 -31 69 -51 93 -25
30 22 -53 10 -53 -15 0 -12 24 -29 50 -38 58 -14 11 -16 11 -8 -2 6 -12 4 -11
-11 2 -23 20 -93 33 -279 52 -240 25 -314 29 -510 28 -220 -2 -310 -10 -645
-58 -134 -19 -251 -33 -260 -31 -8 1 75 15 185 30 110 16 214 34 230 42 62 28
243 46 489 48 132 1 222 5 201 9 -247 44 -1251 172 -1469 187 -76 5 -141 12
-144 16 -8 7 134 -2 323 -20z m-2299 -1141 c43 -11 93 4 109 34 8 15 14 22 15
16 0 -6 25 -31 55 -54 58 -45 64 -54 39 -64 -22 -9 -65 23 -81 61 -14 36 -35
37 -26 3 5 -19 2 -20 -36 -14 -34 5 -48 2 -81 -20 -22 -14 -40 -31 -40 -37 0
-6 -7 -9 -15 -6 -8 4 -17 2 -21 -4 -7 -12 -55 -31 -61 -25 -3 3 16 32 42 65
47 59 48 65 30 116 -4 11 5 1 20 -22 15 -25 36 -45 51 -49z m3410 -16 c42 -26
84 -23 117 7 15 14 27 30 27 35 0 6 4 10 10 10 5 0 2 -15 -6 -34 -16 -32 -15
-35 9 -77 36 -62 59 -119 47 -119 -5 0 -25 16 -45 35 -19 20 -35 32 -36 28 -1
-4 -1 -21 -1 -38 1 -22 -2 -18 -11 18 -22 86 -94 134 -162 107 -42 -17 -155
-24 -155 -10 0 6 34 27 75 47 58 27 75 40 76 57 0 15 4 12 13 -14 7 -19 26
-42 42 -52z"/>
<path d="M400 2911 c0 -5 6 -11 13 -14 6 -2 -15 -3 -48 -2 -78 4 -86 -3 -33
-27 29 -14 78 -23 148 -28 58 -4 116 -13 129 -19 17 -9 26 -10 34 -2 8 8 8 11
0 11 -7 0 -8 12 -3 36 7 29 6 34 -7 30 -8 -3 -17 -6 -19 -6 -3 0 -2 -5 2 -11
3 -6 -8 -3 -26 6 -17 9 -38 14 -45 11 -7 -2 -28 -1 -47 4 -63 16 -98 19 -98
11z"/>
</g>
</svg>
