<?xml version="1.0" standalone="no"?>
<!DOCTYPE svg PUBLIC "-//W3C//DTD SVG 20010904//EN"
 "http://www.w3.org/TR/2001/REC-SVG-20010904/DTD/svg10.dtd">
<svg version="1.0" xmlns="http://www.w3.org/2000/svg"
 width="510.000000pt" height="340.000000pt" viewBox="0 0 510.000000 340.000000"
 preserveAspectRatio="xMidYMid meet">
<metadata>
Created by potrace 1.15, written by Peter Selinger 2001-2017
</metadata>
<g transform="translate(0.000000,340.000000) scale(0.100000,-0.100000)"
fill="#000000" stroke="none">
<path d="M30 3385 c9 -11 9 -15 1 -15 -7 0 -11 -6 -10 -12 3 -29 -2 -49 -11
-43 -7 4 -10 -365 -10 -1099 l0 -1106 151 0 151 0 -5 -26 c-8 -44 13 -10 26
42 7 27 18 48 24 47 8 -2 7 6 -2 24 -19 37 -8 49 17 18 10 -14 24 -25 30 -25
6 0 5 6 -2 15 -17 20 -5 32 15 15 10 -8 15 -9 15 -1 0 6 5 11 11 11 5 0 8 -4
5 -9 -3 -5 6 -8 19 -8 34 0 32 23 -2 30 -51 10 -73 41 -73 103 0 30 6 69 14
87 49 118 346 208 751 227 116 6 267 15 336 20 70 6 135 8 145 5 11 -3 4 2
-13 10 -18 8 -33 19 -33 24 0 5 14 3 31 -6 16 -8 39 -13 49 -10 11 3 21 -1 24
-9 9 -25 70 -17 97 12 13 15 78 76 144 136 66 61 120 114 120 119 0 9 73 57
135 89 99 51 437 105 720 115 294 11 335 12 453 6 96 -5 116 -4 112 7 -3 8 -2
19 2 25 5 7 10 0 13 -17 3 -17 10 -29 15 -29 6 1 18 -3 27 -8 10 -5 75 -11
145 -13 71 -2 137 -7 147 -12 14 -5 17 -4 12 4 -5 8 -2 10 8 6 9 -3 16 -10 16
-14 0 -4 20 -13 45 -19 25 -6 45 -13 45 -14 0 -2 -18 -3 -39 -2 -21 0 -37 4
-34 9 7 10 -38 -3 -52 -15 -5 -5 3 -9 20 -10 l30 -1 -30 -7 c-33 -8 -75 -29
-75 -37 0 -3 5 -2 12 2 8 5 9 2 4 -12 -4 -10 -9 -35 -12 -54 -3 -32 -3 -32 4
-6 l7 30 35 -30 c78 -68 102 -79 165 -80 87 -1 168 -28 199 -65 27 -32 33 -49
16 -49 -5 0 -10 6 -10 13 0 26 -42 49 -99 53 -31 3 -73 10 -94 16 -33 10 -41
9 -67 -11 l-30 -22 0 23 c0 17 -3 19 -9 9 -6 -10 -13 -10 -28 -3 -12 7 -25 7
-34 1 -11 -7 -9 -9 8 -9 12 0 24 -4 27 -9 4 -5 -12 -7 -36 -4 -50 5 -58 14
-58 67 0 75 -13 26 -20 -76 -4 -57 -9 -110 -11 -118 -3 -11 5 -16 29 -18 17
-2 32 -7 32 -12 0 -20 -13 -40 -26 -40 -10 0 -13 -8 -9 -27 l6 -28 -16 25 c-9
14 -14 17 -11 8 3 -10 1 -20 -4 -23 -4 -3 -89 -10 -188 -16 -99 -6 -193 -14
-209 -18 -18 -5 -42 -2 -66 7 -48 19 -88 5 -82 -29 2 -12 6 -22 7 -23 2 -1 14
-7 28 -14 24 -11 24 -11 -5 -4 -57 13 -94 6 -141 -27 -38 -26 -52 -31 -86 -27
-23 3 -54 14 -71 26 -16 12 -36 23 -45 24 -9 2 -18 8 -20 15 -3 9 -7 8 -16 -3
-6 -8 -29 -17 -51 -20 -22 -2 -51 -9 -65 -15 l-25 -10 30 -1 30 -1 -30 -13
c-29 -13 -61 -53 -51 -63 3 -3 19 8 36 25 16 17 30 27 30 23 0 -4 -9 -16 -20
-26 -11 -10 -17 -21 -15 -25 3 -4 -2 -13 -10 -20 -16 -14 -10 -34 7 -24 7 4 8
2 4 -5 -4 -7 -15 -11 -24 -9 -10 2 -42 -10 -73 -28 -102 -57 -273 -73 -309
-28 -7 7 -16 11 -21 8 -5 -3 -6 2 -3 11 4 9 30 30 58 46 58 34 57 34 -41 -4
-97 -38 -102 -45 -75 -110 12 -29 22 -56 22 -60 0 -10 -38 -9 -59 2 -25 14
-65 105 -56 128 5 10 7 21 7 26 -1 4 5 7 13 7 19 0 168 70 162 76 -3 3 -22 -2
-42 -11 -21 -8 -40 -13 -43 -11 -9 10 -80 -34 -106 -64 -22 -27 -26 -29 -26
-12 0 11 5 22 10 24 7 2 6 10 -2 21 -12 16 -16 16 -73 -4 -88 -31 -99 -38 -84
-55 6 -8 18 -14 26 -14 13 0 13 -3 3 -15 -10 -12 -10 -15 4 -15 9 0 16 -5 16
-11 0 -5 -5 -7 -10 -4 -6 4 -10 3 -9 -2 6 -33 -5 -31 -20 4 -11 23 -29 46 -40
53 -27 14 -260 36 -542 50 -195 10 -620 2 -734 -15 -104 -15 -103 -14 -135
-61 -16 -25 -30 -49 -30 -55 0 -5 -10 -14 -22 -19 -18 -7 -19 -9 -5 -9 13 -1
17 -10 17 -39 0 -20 4 -53 10 -71 5 -19 8 -36 6 -38 -2 -2 -38 8 -80 22 -83
28 -108 24 -122 -17 -13 -37 -11 -230 2 -278 7 -25 13 -36 13 -25 2 18 3 19
14 3 12 -14 14 -15 23 -1 6 9 39 19 91 26 45 7 87 17 92 22 5 6 21 33 36 60
15 28 24 39 21 25 -5 -24 -3 -25 41 -25 28 0 48 -5 50 -12 3 -8 -5 -13 -21
-13 -16 0 -48 -19 -87 -52 -99 -85 -93 -82 -154 -71 -30 5 -52 6 -49 2 2 -5
32 -14 66 -20 45 -9 57 -14 42 -19 -10 -4 -35 -6 -54 -4 -32 3 -31 3 10 -10
25 -8 38 -15 30 -16 -8 -1 3 -8 25 -16 l40 -14 -54 6 c-59 7 -116 35 -132 66
-6 11 -13 17 -16 15 -10 -10 65 -113 115 -158 53 -48 104 -77 157 -90 25 -6
21 -7 -25 -9 -83 -3 -40 -10 126 -19 l149 -8 -145 -2 c-157 -2 -166 -15 -18
-26 248 -17 794 -45 1008 -51 486 -13 908 -19 903 -11 -7 12 12 8 25 -5 9 -9
12 -9 12 0 0 7 7 12 16 12 8 0 12 -4 9 -10 -3 -5 -1 -10 4 -10 6 0 11 5 11 10
0 6 5 10 11 10 5 0 7 -4 4 -10 -4 -6 22 -10 72 -9 54 1 70 3 53 9 -21 7 -19 8
17 9 23 1 45 -3 48 -9 3 -5 25 -9 48 -9 l42 2 -35 7 c-34 7 -34 7 13 9 30 0
46 -3 42 -9 -3 -5 0 -10 9 -10 8 0 16 4 18 10 2 6 65 11 150 12 82 2 148 5
148 8 0 3 36 5 80 5 44 0 80 3 80 8 0 4 11 5 25 1 33 -8 115 -10 115 -3 0 4
14 4 32 0 17 -4 57 -4 89 -1 32 3 55 2 53 -2 -3 -4 18 -8 46 -8 45 0 51 2 46
17 -5 16 -4 16 6 3 12 -14 20 -15 53 -11 6 1 3 6 -5 11 -11 7 -7 8 15 6 16 -2
31 -8 33 -15 5 -14 32 -15 32 0 0 5 -5 7 -12 3 -6 -4 -8 -3 -5 3 10 16 45 22
50 8 4 -9 21 -10 67 -3 34 4 66 10 71 14 5 3 9 1 9 -4 0 -5 11 -7 25 -4 14 2
31 -1 39 -7 8 -7 16 -8 18 -3 1 5 18 13 37 17 22 5 31 4 27 -3 -4 -6 2 -8 14
-5 11 3 20 9 20 13 0 5 25 6 56 3 41 -3 59 -1 65 9 5 8 9 8 9 2 0 -12 25 -12
51 0 9 4 34 3 57 -3 29 -6 42 -6 42 2 0 6 3 7 6 4 4 -3 15 -2 25 4 13 7 19 6
19 -1 0 -7 8 -9 21 -5 16 6 20 4 14 -6 -6 -11 -5 -11 5 -2 10 9 17 9 32 0 15
-10 21 -9 28 3 8 12 10 12 10 1 0 -8 6 -11 16 -7 9 4 23 1 32 -6 13 -11 14
-10 7 11 -5 16 -4 21 4 17 6 -4 11 -14 11 -22 0 -14 2 -13 16 0 8 9 20 13 26
10 7 -4 8 -2 4 4 -4 7 -1 12 9 12 9 0 14 -4 11 -8 -2 -4 4 -8 14 -9 11 -1 23
3 26 9 4 7 2 8 -4 4 -8 -5 -10 -2 -6 8 5 12 9 13 19 3 7 -7 11 -15 9 -19 -3
-4 5 -5 16 -3 11 2 20 0 20 -4 0 -13 32 -18 60 -10 24 7 24 7 -5 9 -16 1 -34
2 -38 1 -5 -1 -6 3 -3 8 3 5 18 7 34 5 25 -4 27 -1 29 31 2 19 0 35 -5 36 -35
5 -118 8 -229 8 -73 0 -133 3 -133 7 0 3 8 18 18 32 24 35 48 103 62 177 6 33
14 71 16 83 4 18 8 21 18 13 10 -8 16 -8 24 2 7 8 29 12 57 11 25 -1 45 2 45
7 0 6 5 7 11 4 6 -4 35 -4 65 0 l54 6 0 559 c0 437 -3 560 -13 564 -9 5 -9 7
1 12 9 4 12 74 12 299 0 162 -4 296 -8 299 -5 3 -8 -15 -7 -39 3 -55 -12 -83
-21 -39 -5 27 -34 45 -34 22 0 -5 -5 -6 -10 -3 -14 9 -8 45 13 75 21 30 22 40
2 40 -8 0 -15 -9 -15 -20 0 -11 -5 -20 -11 -20 -5 0 -7 5 -4 10 3 6 2 10 -2
10 -5 0 -17 -13 -26 -30 -10 -16 -14 -30 -9 -30 6 0 13 7 16 16 4 9 9 14 12
11 3 -3 -6 -24 -20 -46 -27 -41 -40 -54 -30 -26 4 8 1 15 -5 15 -6 0 -10 -3
-10 -7 1 -5 1 -18 0 -31 -1 -19 -5 -22 -23 -16 -13 3 -25 11 -26 15 -2 5 -8 6
-14 3 -7 -4 -7 -9 0 -13 7 -4 4 -20 -8 -46 -20 -43 -27 -34 -10 11 8 19 8 29
0 34 -6 4 -12 17 -13 28 -1 12 -6 22 -11 22 -5 0 -1 7 10 15 10 8 28 15 40 15
11 0 31 11 44 25 13 14 30 23 38 20 7 -2 11 -1 8 4 -3 4 6 14 19 21 26 14 35
33 11 24 -8 -3 -17 0 -22 7 -5 8 -3 10 6 4 10 -6 12 -4 6 11 -6 15 -5 16 5 7
10 -10 19 -7 45 12 18 14 41 25 51 25 14 0 15 2 4 9 -11 7 -11 9 0 14 12 5 12
7 0 15 -9 7 -10 12 -2 16 6 4 10 32 10 64 -1 51 -2 53 -9 22 -4 -19 -8 -27 -9
-17 -1 19 -12 22 -26 8 -6 -6 -29 -13 -52 -17 -36 -5 -43 -4 -43 10 0 20 -5
20 -36 0 -13 -9 -27 -14 -31 -11 -3 4 -15 1 -27 -5 -29 -16 -76 -21 -76 -9 0
6 -5 10 -11 8 -6 -1 -14 4 -17 12 -3 8 0 11 6 7 6 -4 24 1 39 11 15 10 24 13
20 7 -9 -16 21 -26 41 -14 10 5 13 10 8 10 -6 0 -1 7 10 15 17 13 16 14 -20 8
-36 -6 -38 -5 -28 13 5 10 25 24 44 30 23 9 27 13 13 14 -18 1 -18 2 5 15 l25
15 -23 6 -23 7 27 13 c14 8 35 14 45 14 10 0 21 5 24 10 3 6 15 10 25 10 10 0
25 8 32 18 19 26 56 26 61 -1 3 -12 4 -3 4 20 -1 34 -4 40 -14 31 -17 -14 -18
13 -2 29 15 15 23 93 11 93 -16 0 -22 41 -6 47 11 4 14 28 14 105 l0 100 -172
-3 c-95 -1 -178 -4 -185 -7 -6 -2 -9 -11 -6 -20 5 -12 2 -14 -11 -9 -10 4 -24
7 -32 7 -8 0 -11 6 -8 15 4 8 1 15 -5 15 -6 0 -11 -6 -11 -14 0 -8 -11 -17
-25 -20 -13 -3 -29 -16 -35 -27 -11 -20 -11 -20 14 -4 14 9 33 15 42 13 12 -2
5 -9 -23 -23 -23 -11 -37 -23 -31 -27 6 -3 18 0 25 8 8 8 20 14 26 14 7 0 4
-5 -5 -11 -10 -5 -18 -16 -18 -24 0 -7 -6 -16 -13 -18 -7 -3 -4 -6 6 -6 12 -1
16 -5 11 -13 -5 -9 -2 -8 9 1 20 16 30 11 22 -10 -3 -9 -23 -15 -55 -16 -28
-1 -48 2 -45 7 3 4 -2 13 -10 20 -13 11 -15 8 -15 -14 0 -14 -5 -26 -12 -26
-6 0 -8 3 -5 7 9 9 -12 33 -29 33 -8 0 -14 -5 -14 -11 0 -6 7 -9 15 -5 8 3 15
1 15 -5 0 -7 -13 -9 -32 -7 -18 3 -45 2 -61 -3 -20 -6 -27 -5 -24 4 2 6 18 14
35 18 36 7 64 27 57 40 -3 4 3 13 12 19 15 10 14 11 -9 7 -31 -5 -40 19 -12
30 8 3 13 12 10 19 -3 8 -1 14 3 14 5 0 11 -5 13 -12 3 -7 10 -8 17 -3 11 6 8
12 -10 26 -21 16 -45 19 -191 19 -124 0 -168 -3 -168 -12 0 -9 -3 -9 -12 0 -7
7 -25 12 -41 12 -25 0 -28 -2 -17 -15 8 -9 9 -15 2 -15 -6 0 -13 4 -17 10 -3
5 -13 6 -22 3 -11 -4 -14 -3 -9 5 5 8 0 12 -14 12 -12 0 -19 -4 -15 -9 3 -5
-9 -16 -26 -25 -24 -12 -34 -13 -50 -3 -10 6 -19 17 -19 24 0 7 -6 13 -13 13
-26 0 -78 -19 -93 -34 -8 -9 -28 -16 -44 -16 -23 0 -27 -4 -23 -19 6 -25 -11
-35 -27 -16 -17 20 -55 19 -76 -2 -17 -17 -17 -17 -11 -1 11 30 -10 29 -44 -2
l-33 -29 37 6 c33 5 37 3 37 -16 0 -11 -5 -21 -11 -21 -6 0 -9 7 -5 15 7 20
-18 19 -35 -1 -10 -13 -10 -17 0 -23 10 -7 10 -12 0 -30 -8 -11 -17 -21 -21
-21 -13 0 -9 -18 5 -23 6 -2 4 -3 -5 -2 -9 2 -19 -2 -22 -9 -3 -8 -7 -8 -13 1
-9 13 -53 14 -53 1 0 -8 17 -12 35 -8 6 1 1 -7 -10 -18 -15 -15 -23 -17 -34
-8 -11 8 -15 8 -18 -1 -9 -26 -22 -12 -18 18 3 26 1 29 -13 23 -26 -11 -66
-11 -74 0 -4 6 -10 7 -14 3 -4 -3 -2 -13 5 -21 9 -11 9 -15 -1 -19 -8 -4 -7
-6 5 -6 9 -1 17 5 17 12 0 7 13 12 31 13 17 1 27 -2 22 -5 -5 -3 -14 -17 -21
-31 -7 -14 -10 -16 -7 -6 4 15 3 16 -8 8 -13 -11 -29 -11 -59 2 -32 14 -53 3
-50 -26 2 -14 -2 -29 -7 -33 -7 -3 -11 2 -11 14 0 12 -5 21 -11 21 -6 0 -9 -6
-6 -14 3 -8 -1 -20 -8 -26 -13 -10 -12 -16 0 -40 8 -16 11 -31 6 -34 -14 -9
-41 4 -41 20 0 8 -4 14 -9 14 -5 0 -18 3 -28 7 -11 4 -5 -7 17 -30 19 -20 40
-37 47 -37 6 0 15 -5 19 -11 4 -7 1 -10 -6 -7 -8 2 -22 -4 -33 -15 -10 -10
-25 -16 -32 -13 -7 2 -15 -4 -18 -15 -3 -12 0 -19 9 -19 8 0 14 -5 14 -11 0
-5 -4 -7 -10 -4 -6 3 -7 -1 -4 -10 4 -10 13 -13 25 -10 10 3 32 -1 49 -10 30
-15 32 -15 51 7 11 13 17 17 13 9 -3 -7 0 -18 7 -23 11 -8 10 -9 -3 -4 -22 7
-33 -10 -12 -18 9 -3 27 -6 40 -6 14 0 23 -4 19 -10 -3 -5 -12 -7 -20 -3 -8 3
-15 0 -15 -6 0 -6 -9 -11 -20 -11 -18 0 -25 10 -21 33 1 4 -9 5 -22 2 -13 -4
-30 -7 -38 -9 -23 -3 -59 -26 -59 -36 0 -15 28 -12 33 3 2 6 8 9 12 5 13 -13
-24 -40 -45 -33 -13 4 -20 2 -20 -7 0 -10 -3 -9 -10 2 -6 9 -10 10 -10 3 0
-17 17 -25 25 -13 5 8 11 8 20 0 7 -6 19 -8 28 -4 8 3 18 0 23 -7 5 -9 2 -10
-9 -6 -12 4 -14 2 -10 -10 7 -17 5 -16 -59 4 -12 4 -18 0 -18 -11 0 -9 6 -16
13 -15 27 3 47 -2 47 -11 0 -6 -12 -9 -27 -8 -20 2 -27 -1 -25 -12 2 -8 -8 -2
-22 13 -19 20 -32 26 -46 22 -12 -4 -20 -2 -20 5 0 15 -25 7 -26 -8 -1 -7 -2
-17 -3 -23 -1 -8 -5 -8 -14 0 -17 13 -38 -5 -30 -25 3 -9 -2 -14 -16 -14 -14
0 -21 -6 -21 -20 0 -11 -4 -20 -9 -20 -11 0 -24 31 -16 38 3 3 5 2 5 -2 0 -4
10 2 22 14 12 11 19 23 15 26 -10 10 31 36 44 29 6 -4 9 0 7 11 -4 25 50 39
72 19 9 -8 20 -15 25 -15 4 0 -2 9 -15 20 -30 26 -60 25 -88 -1 -13 -11 -27
-17 -34 -12 -7 4 -27 6 -45 4 -19 -1 -33 2 -33 8 0 6 -5 11 -11 11 -5 0 -8 -4
-5 -9 6 -9 -18 -24 -40 -26 -6 0 -19 -6 -28 -14 -9 -8 -16 -9 -16 -3 0 6 12
20 28 33 17 14 22 23 15 26 -20 7 -15 23 8 23 12 0 17 4 13 11 -5 8 -1 8 14 0
14 -7 29 -8 46 -1 26 10 34 2 16 -16 -6 -6 -5 -15 1 -24 9 -13 10 -13 6 1 -4
12 1 17 16 18 66 2 124 0 138 -4 11 -4 18 2 22 15 4 16 0 20 -17 20 -12 0 -27
-5 -34 -12 -9 -9 -12 -9 -12 -1 0 7 4 15 10 18 5 3 10 12 10 18 0 9 -2 9 -8 0
-9 -15 -101 -15 -119 -1 -10 8 -13 6 -13 -7 0 -15 -6 -17 -42 -10 -24 4 -55 8
-70 8 -39 -1 -25 14 20 22 20 3 44 10 52 16 17 11 -50 2 -88 -12 -18 -7 -23
-6 -20 3 3 7 15 14 29 16 13 2 34 8 47 14 18 9 28 9 44 -1 11 -7 17 -8 14 -2
-4 5 9 22 28 37 26 21 31 30 22 39 -9 10 -15 10 -31 -1 -22 -16 -35 -18 -35
-6 0 4 10 12 23 17 13 6 21 17 19 28 -4 22 24 33 44 17 12 -11 17 -11 27 0 9
10 9 13 0 17 -9 3 -6 11 7 26 16 16 23 18 32 9 9 -9 8 -12 -5 -12 -11 0 -17
-8 -17 -23 0 -13 -5 -28 -12 -35 -9 -9 -6 -10 12 -7 27 5 40 22 33 42 -3 7 2
16 11 19 9 3 16 17 16 29 0 13 6 26 13 28 17 8 -32 46 -59 47 -11 0 -29 7 -40
15 -24 18 -45 19 -38 2 2 -7 -3 -21 -12 -32 -9 -12 -14 -14 -11 -5 3 11 -3 15
-27 14 -37 -1 -74 -19 -64 -30 4 -4 14 -1 22 5 31 26 36 -1 6 -32 -16 -17 -30
-34 -30 -39 0 -4 -8 -8 -18 -8 -11 0 -27 -9 -38 -21 -19 -21 -19 -21 11 -17
17 2 29 8 27 16 -1 6 2 12 8 12 5 0 10 -6 10 -14 0 -26 -12 -46 -27 -46 -8 0
-11 -5 -7 -11 4 -7 -1 -7 -16 1 -18 10 -24 9 -31 -1 -13 -21 -22 -3 -9 20 12
23 -1 63 -14 42 -4 -6 -2 -11 3 -11 6 0 11 -4 11 -10 0 -16 -27 -12 -33 5 -6
14 40 55 61 55 5 0 13 11 16 25 4 14 14 25 23 25 12 0 14 3 7 10 -16 16 -38 3
-52 -30 -8 -17 -18 -27 -23 -24 -6 3 -16 0 -24 -6 -11 -9 -15 -9 -15 -1 0 6
-4 11 -10 11 -5 0 -7 -7 -4 -15 10 -25 -12 -17 -24 10 -10 21 -9 23 6 18 9 -3
14 -2 9 2 -4 5 3 20 15 34 13 14 16 20 6 13 -9 -8 -27 -10 -42 -6 -22 5 -25 4
-19 -12 4 -12 3 -15 -5 -10 -7 4 -17 4 -24 0 -8 -5 -6 -10 8 -16 13 -5 7 -7
-18 -4 -40 4 -48 -4 -23 -24 9 -7 14 -15 11 -17 -2 -2 -15 7 -29 21 l-26 26
32 8 c32 9 32 9 7 17 -15 5 -25 4 -28 -4 -2 -6 -12 -11 -23 -11 -10 0 -19 -4
-19 -10 0 -5 5 -10 10 -10 6 0 10 -5 10 -11 0 -6 -7 -9 -15 -5 -10 4 -15 -1
-15 -15 0 -15 5 -19 15 -16 8 4 17 2 20 -3 4 -6 -1 -10 -9 -10 -9 0 -16 -5
-16 -10 0 -6 -7 -10 -16 -8 -10 2 -19 -3 -21 -9 -3 -7 1 -13 9 -13 8 0 14 -9
14 -19 0 -11 -4 -17 -8 -15 -4 3 -8 -3 -8 -12 0 -10 -3 -14 -6 -11 -4 3 -15 2
-25 -4 -24 -12 -25 -1 -1 17 15 12 14 12 -8 7 -22 -6 -24 -5 -11 10 7 9 20 17
28 17 8 0 11 4 8 10 -3 5 -2 26 4 45 9 35 9 36 -17 34 -43 -3 -62 0 -62 11 0
6 10 10 23 11 20 0 20 1 3 8 -18 7 -18 8 -2 14 25 10 26 9 35 -15 l8 -22 13
23 c6 13 8 21 3 18 -4 -3 -15 2 -23 11 -13 14 -12 15 3 9 11 -4 20 -1 23 8 3
8 12 11 21 8 11 -4 14 -2 9 6 -7 11 8 10 67 -6 9 -2 17 0 17 6 0 16 70 35 83
22 8 -8 1 -11 -26 -11 -20 0 -37 -4 -37 -9 0 -5 9 -7 20 -4 11 3 26 0 34 -6
11 -9 15 -9 18 1 3 9 24 13 61 13 38 0 57 4 57 12 0 10 21 17 90 26 9 2 15 12
14 27 l-1 24 15 -22 c8 -12 25 -22 37 -22 13 0 25 -5 27 -12 5 -14 238 -18
237 -4 0 5 5 13 13 17 9 6 3 9 -17 9 -41 0 -12 20 30 20 22 0 33 7 42 25 13
28 11 30 -20 14 -19 -10 -20 -9 -9 2 7 8 27 19 45 25 18 6 32 17 32 25 0 8 12
22 28 32 15 9 32 28 37 42 7 19 17 25 41 25 27 0 30 2 19 15 -11 13 -60 15
-331 14 -291 -1 -319 -2 -319 -17 -1 -15 -2 -15 -11 1 -7 11 -22 17 -49 17
-41 0 -45 -6 -43 -58 1 -8 -9 -12 -26 -10 -17 2 -26 9 -25 19 1 12 -6 16 -26
14 -15 -1 -32 -5 -39 -9 -17 -11 -26 1 -13 17 12 14 7 27 -10 27 -5 0 -6 -4
-3 -10 3 -5 -1 -10 -9 -10 -9 0 -16 5 -16 10 0 7 -287 10 -842 10 -782 0 -843
-1 -860 -17 -15 -14 -19 -14 -16 -3 2 12 -12 15 -77 15 -82 1 -104 -8 -110
-43 -1 -9 -8 -16 -14 -14 -6 1 -14 -4 -17 -12 -4 -10 -14 -12 -40 -6 -24 6
-44 4 -63 -6 -36 -18 -65 -50 -56 -63 3 -6 1 -11 -5 -11 -6 0 -15 -11 -20 -25
-10 -25 -18 -29 -55 -25 -29 3 -29 5 -1 35 14 15 23 32 20 37 -3 5 2 8 11 6
10 -2 20 3 22 10 3 6 -2 12 -11 12 -12 0 -15 9 -12 44 1 23 6 48 10 55 5 8
-30 11 -135 11 -133 0 -144 -2 -166 -22 -13 -12 -23 -16 -23 -10 0 7 5 12 11
12 5 0 7 5 4 10 -3 6 -18 10 -32 10 -21 0 -24 -2 -13 -15z m3784 -64 c-6 -27
-3 -30 22 -33 16 -2 46 0 66 4 58 12 118 15 118 6 0 -4 -5 -8 -12 -8 -9 0 -9
-3 0 -12 8 -8 15 -8 26 2 9 7 23 10 31 6 8 -3 15 -2 15 3 0 5 10 7 23 7 12 -1
34 4 49 11 32 15 38 16 38 5 0 -5 -27 -17 -59 -27 -47 -14 -58 -21 -53 -34 5
-14 4 -14 -13 -1 -11 9 -16 10 -11 3 9 -16 7 -16 -33 -2 -17 6 -31 14 -31 19
0 12 -36 19 -51 9 -10 -6 -6 -9 14 -9 15 0 27 -4 27 -9 0 -4 -11 -7 -25 -6
-31 4 -42 -11 -15 -18 11 -3 20 -13 20 -22 0 -12 -6 -15 -19 -10 -11 3 -22 1
-26 -5 -3 -5 -14 -14 -25 -20 -15 -8 -17 -7 -13 10 5 18 1 20 -38 16 -24 -2
-53 -7 -64 -11 -15 -5 -16 -4 -6 3 19 14 7 28 -29 35 -21 5 -28 11 -24 22 3 8
16 15 28 14 11 0 15 -3 9 -6 -24 -9 -13 -22 22 -29 21 -4 48 -1 65 6 33 14 32
22 -1 27 -16 2 -20 -1 -15 -12 3 -9 0 -15 -10 -15 -8 0 -12 4 -9 10 3 6 -1 7
-10 4 -11 -5 -14 -2 -9 10 3 9 1 16 -5 16 -6 0 -11 4 -11 10 0 5 7 7 15 4 8
-4 15 -1 15 5 0 6 -7 11 -15 11 -8 0 -15 6 -15 14 0 13 13 20 42 25 4 0 5 -12
2 -28z m-1194 8 c0 -6 16 -9 38 -8 20 2 46 -2 57 -9 19 -11 19 -11 -5 -12 -24
-1 -24 -1 5 -14 20 -8 25 -15 17 -20 -7 -4 -19 -2 -27 4 -12 10 -15 9 -15 -3
0 -16 -26 -30 -41 -21 -5 3 -9 2 -9 -3 0 -4 -4 -14 -9 -22 -8 -12 -11 -12 -24
1 -12 11 -13 18 -4 27 8 8 6 11 -8 12 -72 5 -75 5 -71 -8 4 -10 1 -11 -14 -3
-11 6 -21 6 -24 1 -3 -5 7 -14 24 -19 16 -6 29 -8 27 -4 -1 4 1 8 6 10 34 11
28 -20 -8 -36 -18 -8 -25 -8 -29 1 -3 7 -3 2 0 -10 6 -25 -5 -30 -23 -12 -12
12 -53 3 -53 -12 0 -6 8 -5 20 1 16 9 24 7 36 -5 14 -13 13 -15 -11 -15 -21 0
-26 -4 -21 -16 8 -20 -11 -45 -28 -38 -8 3 -16 -2 -19 -10 -4 -9 -12 -16 -18
-16 -7 0 3 14 21 30 25 22 29 30 16 30 -10 0 -14 5 -10 11 5 8 -1 10 -20 7
-14 -3 -26 -1 -26 3 0 5 -9 0 -20 -11 -11 -11 -20 -27 -20 -35 0 -8 -7 -15
-16 -15 -8 0 -12 -4 -9 -10 3 -5 -1 -10 -9 -10 -19 0 -20 -5 -6 -31 7 -12 22
-19 43 -19 27 -1 29 -2 14 -11 -14 -8 -16 -14 -6 -25 9 -11 8 -15 -2 -18 -32
-10 -69 -13 -69 -5 0 21 -28 7 -32 -16 -3 -13 -1 -22 4 -19 4 3 15 -1 23 -9
12 -13 12 -16 0 -20 -9 -4 -12 -15 -9 -33 l5 -27 -18 22 -18 23 -19 -21 c-11
-12 -25 -21 -32 -21 -11 0 -11 -5 -2 -25 11 -25 31 -25 21 0 -3 8 0 15 6 15
11 0 15 -20 11 -50 -3 -21 -6 -23 -26 -12 -11 6 -30 6 -51 0 -47 -13 -78 -5
-41 10 19 8 26 16 22 27 -4 8 -1 21 5 29 12 14 12 14 -51 35 -20 7 -28 5 -32
-5 -3 -8 1 -14 9 -14 8 0 15 -4 15 -10 0 -5 7 -10 15 -10 8 0 15 -3 15 -8 0
-4 -20 -7 -45 -8 -31 0 -45 4 -45 13 0 7 -7 13 -15 13 -13 0 -14 -4 -5 -20 7
-14 7 -20 0 -20 -5 0 -10 5 -10 10 0 6 -10 10 -22 9 -13 0 -17 -3 -10 -6 6 -2
10 -9 6 -14 -3 -5 2 -9 10 -9 9 0 16 -7 16 -16 0 -11 -6 -13 -19 -9 -11 3 -22
1 -26 -5 -3 -5 -15 -10 -25 -10 -13 0 -17 -5 -14 -14 3 -8 0 -17 -6 -21 -15
-9 -16 -7 -24 35 -5 23 -4 30 2 21 11 -15 36 -6 27 10 -4 5 -1 9 5 9 7 0 10
-7 6 -15 -7 -18 5 -20 22 -3 22 22 13 31 -24 25 -30 -5 -35 -3 -30 10 5 12 4
13 -7 5 -8 -7 -18 -8 -22 -4 -5 4 -5 1 -1 -6 4 -6 1 -18 -6 -26 -32 -34 -47
-56 -37 -56 5 0 7 -5 4 -10 -4 -6 -16 -8 -28 -5 -12 2 -16 2 -9 -1 6 -3 10
-10 6 -15 -8 -13 -22 -11 -27 4 -2 6 -3 4 -2 -5 2 -11 -3 -18 -13 -18 -15 0
-15 -2 -2 -10 8 -5 17 -5 20 0 3 5 10 -2 16 -15 9 -19 9 -25 -2 -29 -8 -3 -11
0 -7 10 3 9 -2 14 -16 14 -25 0 -27 -15 -6 -36 8 -9 15 -23 14 -32 0 -14 -2
-14 -8 2 -5 14 -10 16 -15 8 -4 -7 -11 -10 -16 -7 -5 3 -20 0 -32 -7 -13 -7
-27 -11 -31 -10 -5 1 -6 -2 -2 -8 3 -5 -1 -10 -9 -10 -8 0 -17 4 -21 10 -3 5
-11 7 -18 5 -7 -2 -25 -7 -40 -9 -44 -8 -28 15 31 45 63 31 67 35 38 34 -13
-1 -40 -11 -59 -23 -34 -20 -36 -20 -25 -2 7 10 9 23 4 27 -4 4 -12 0 -17 -10
-6 -9 -22 -17 -37 -18 l-27 -1 25 -7 c24 -7 24 -7 5 -19 -13 -7 -16 -14 -9
-19 21 -16 22 -40 2 -57 -15 -13 -17 -20 -8 -31 6 -8 19 -11 28 -8 13 5 12 2
-3 -14 -23 -23 -55 -37 -55 -23 0 6 4 10 10 10 6 0 7 15 4 38 -7 42 -14 54
-22 33 -3 -10 -6 -10 -12 -1 -6 9 -13 9 -29 1 -25 -14 -27 -4 -7 43 7 18 26
42 41 54 18 14 25 27 21 38 -4 10 1 22 11 30 17 13 17 14 -2 7 -18 -6 -18 -4
4 20 14 15 20 27 15 27 -5 0 3 11 19 24 15 13 27 28 27 34 0 7 7 9 17 5 10 -4
14 -2 10 4 -4 6 0 13 8 17 19 7 19 26 0 26 -20 0 -19 6 5 30 24 24 98 27 78 2
-9 -11 -7 -11 15 -1 15 7 29 20 32 31 4 11 16 18 33 19 26 0 26 1 5 9 -22 9
-32 21 -15 19 20 -3 32 2 32 16 0 8 6 15 13 15 15 0 48 36 40 44 -4 3 0 7 8 8
8 0 19 2 24 3 6 2 16 3 23 4 7 0 10 6 6 12 -4 7 8 10 37 8 24 -2 45 1 46 7 1
5 -15 8 -35 7 -36 -2 -36 -1 12 14 29 9 44 18 37 22 -9 6 -7 12 5 22 13 11 18
11 21 2 7 -21 23 -15 23 8 0 17 -4 20 -24 15 -33 -8 -40 7 -10 21 14 6 24 7
24 1 0 -5 5 -6 10 -3 8 5 8 11 1 19 -6 7 -8 15 -5 19 3 3 -5 3 -18 0 l-23 -5
23 19 c28 23 19 35 -16 22 -21 -8 -23 -7 -14 4 7 8 9 17 6 20 -14 14 69 19 94
6 49 -26 66 -49 35 -49 -16 -1 -16 -2 2 -16 18 -14 18 -14 -11 -8 -21 4 -34 1
-43 -10 -19 -23 -7 -31 13 -10 9 9 20 14 23 11 3 -3 -2 -13 -11 -22 -9 -9 -14
-21 -11 -26 4 -5 1 -17 -5 -26 -9 -16 -10 -15 -8 6 2 13 -3 26 -9 28 -8 3 -13
-5 -13 -21 0 -22 8 -30 30 -28 3 0 14 4 25 8 18 7 18 6 6 -9 -7 -9 -10 -17 -6
-17 4 0 2 -6 -4 -13 -6 -8 -9 -16 -6 -19 3 -3 -1 -10 -9 -17 -11 -9 -17 -8
-29 4 -9 8 -26 15 -39 15 -19 0 -20 -2 -8 -10 13 -8 11 -11 -7 -16 -13 -4 -20
-11 -16 -20 4 -10 -3 -14 -25 -14 -17 0 -33 -4 -36 -9 -12 -18 69 0 83 19 13
20 61 28 61 11 0 -19 -26 -31 -39 -18 -10 9 -11 8 -6 -5 4 -10 17 -19 29 -19
20 -2 20 -2 -2 -6 -12 -2 -27 -13 -32 -24 -6 -10 -16 -19 -23 -19 -7 0 -6 4 3
10 12 8 12 10 -5 11 -11 0 -14 3 -7 6 6 2 10 9 6 14 -3 5 -12 2 -21 -6 -9 -9
-21 -14 -28 -11 -8 3 -16 -2 -19 -10 -3 -9 -10 -12 -16 -9 -5 3 -10 0 -10 -8
0 -10 8 -13 25 -9 14 2 22 8 19 13 -3 5 -3 9 0 9 2 0 11 3 20 6 32 12 15 -14
-19 -31 -28 -13 -35 -21 -30 -36 4 -12 2 -19 -5 -17 -7 2 -14 -1 -16 -7 -2 -5
7 -11 21 -11 14 -1 22 2 19 7 -3 5 6 9 20 9 18 0 24 4 20 15 -5 11 0 13 23 6
20 -6 35 -4 47 4 15 11 13 14 -21 23 l-38 10 35 1 c26 1 31 4 20 11 -17 10
-14 15 18 24 14 5 22 3 22 -4 0 -7 7 -10 15 -6 9 3 15 0 15 -8 0 -7 7 -19 15
-26 10 -9 15 -9 15 -1 0 6 -6 11 -12 11 -7 0 -5 5 5 11 9 5 22 7 27 4 6 -3 7
1 4 9 -3 9 -12 16 -20 16 -8 0 -14 2 -14 4 0 2 -3 13 -6 23 -4 13 -3 15 4 5 5
-8 21 -15 35 -15 14 -1 23 -5 21 -8 -10 -17 34 -14 61 4 17 10 22 17 13 14
-11 -4 -19 1 -23 14 -5 15 -12 18 -28 13 -12 -4 -25 -12 -29 -18 -4 -6 -10 -7
-14 -3 -4 4 0 15 8 24 30 35 33 46 8 33 -12 -6 -24 -9 -27 -6 -3 3 2 8 11 12
23 9 20 27 -4 21 -11 -3 -20 -1 -20 4 0 5 -8 9 -17 9 -13 1 -10 5 10 16 15 8
32 12 37 9 5 -3 12 0 15 6 4 5 21 9 39 8 59 -4 92 1 77 10 -11 7 -5 10 20 13
19 2 34 9 34 16 0 17 24 32 53 32 13 0 20 4 17 10 -4 6 6 10 22 11 24 0 25 1
8 9 -19 7 -19 8 5 19 14 7 36 18 50 26 l25 15 -34 0 c-21 0 -31 4 -25 9 9 8
80 29 122 36 13 2 26 6 30 9 9 10 32 7 32 -5z m2226 -122 c-2 -18 -4 -35 -5
-38 0 -4 -8 -9 -16 -13 -13 -5 -13 -2 1 19 14 22 14 25 1 25 -8 0 -25 -9 -38
-20 -21 -17 -22 -19 -5 -20 15 0 16 -3 6 -15 -12 -14 -5 -18 26 -14 4 0 10 -5
14 -11 5 -9 13 -7 28 6 16 13 18 22 11 40 -9 25 -3 54 12 54 4 0 7 -17 6 -37
-2 -35 0 -38 22 -35 13 1 39 16 57 32 38 33 75 46 101 35 17 -7 17 -8 -1 -14
-12 -5 -15 -10 -9 -14 12 -8 14 -57 2 -57 -4 0 -10 9 -14 19 -8 25 -29 33 -48
18 -13 -10 -12 -15 9 -35 l24 -23 0 23 c1 21 2 21 11 5 7 -12 17 -16 30 -12
10 4 19 3 19 0 0 -8 -31 -40 -39 -40 -3 0 -5 -3 -4 -6 1 -3 -5 -6 -13 -6 -7 0
-12 2 -9 5 2 2 -3 11 -11 19 -12 12 -17 13 -30 3 -10 -9 -21 -10 -37 -3 -28
12 -59 5 -51 -10 5 -8 2 -8 -7 1 -19 18 -53 16 -45 -3 9 -24 -10 -17 -24 9 -7
15 -18 22 -27 19 -12 -5 -12 -7 -2 -14 20 -12 8 -18 -23 -12 -29 6 -39 23 -13
23 22 0 18 28 -4 35 -11 3 -22 13 -25 22 -5 13 -4 14 8 4 11 -9 15 -8 21 6 5
10 7 22 6 27 -3 14 30 33 60 34 26 1 28 -2 25 -31z m-677 -58 c23 -8 29 -14
20 -19 -7 -5 16 -9 50 -9 71 0 74 -1 65 -25 -5 -14 -9 -15 -15 -4 -7 11 -11
11 -17 0 -7 -10 -11 -10 -22 2 -7 9 -17 13 -22 10 -6 -4 -5 -10 3 -15 8 -4 0
-7 -22 -7 -44 1 -109 -12 -109 -22 0 -5 10 -6 23 -2 20 5 21 4 8 -12 -8 -9
-20 -15 -28 -12 -11 5 -18 -11 -14 -36 0 -3 -18 -9 -41 -13 -29 -5 -43 -3 -49
6 -8 12 -11 12 -18 -1 -5 -8 -7 -18 -4 -24 3 -5 1 -6 -5 -3 -5 4 -9 15 -7 25
2 9 4 21 4 25 1 5 5 6 10 3 5 -3 14 1 20 8 9 11 9 16 0 22 -7 4 -14 3 -16 -3
-2 -6 -12 -9 -23 -6 -29 8 -13 33 18 29 15 -2 20 -1 12 1 -8 3 -19 9 -24 14
-15 14 -36 11 -30 -5 9 -22 -11 -27 -28 -6 -15 16 -15 19 -1 24 25 10 75 7 68
-4 -3 -5 1 -10 10 -10 13 0 16 6 11 24 -5 20 -1 25 20 29 14 2 42 1 62 -4 46
-11 88 -11 78 -1 -4 4 -12 8 -17 8 -19 3 -20 4 -14 14 8 12 5 12 44 -1z
m-3747 -59 c-3 -18 0 -30 7 -30 6 0 11 9 11 20 0 27 16 25 24 -2 9 -36 7 -49
-8 -46 -8 2 -15 -1 -16 -7 -1 -5 -6 -15 -11 -22 -11 -13 5 -28 20 -19 5 4 17
3 27 -1 15 -6 15 -7 -4 -14 -12 -5 -22 -16 -21 -26 0 -15 2 -15 7 -3 4 8 21
16 38 17 25 2 33 -2 39 -20 4 -13 8 -17 12 -9 2 6 9 9 14 6 6 -3 2 -12 -8 -20
-24 -18 -34 -17 -27 1 4 8 1 15 -6 15 -6 0 -8 5 -4 11 4 7 1 10 -7 7 -8 -3
-12 -12 -10 -19 2 -8 6 -21 8 -30 3 -9 -3 -19 -13 -23 -25 -10 -32 4 -10 20
21 15 15 17 -22 7 -17 -4 -20 -8 -11 -14 10 -6 10 -13 1 -33 -13 -28 -7 -31
32 -16 21 8 26 7 26 -6 0 -9 -9 -18 -19 -21 -11 -3 -17 -11 -15 -18 7 -16 -45
-27 -61 -12 -12 12 -9 47 5 47 4 0 10 11 12 25 3 13 1 22 -3 19 -5 -3 -9 -12
-9 -20 0 -12 -4 -12 -20 -4 -19 10 -19 13 -5 40 16 31 3 43 -14 13 -8 -15 -12
-16 -23 -4 -9 10 -10 15 -2 18 7 2 10 12 7 22 -3 11 5 24 22 35 22 15 24 20
14 33 -23 27 -22 64 2 89 12 13 23 24 24 24 1 0 0 -13 -3 -30z m194 -451 c4
-7 8 -21 9 -33 1 -11 3 -25 4 -30 0 -5 9 -2 19 7 17 15 18 14 20 -11 1 -18 -1
-23 -7 -13 -6 9 -11 10 -15 2 -7 -11 5 -15 32 -12 20 3 15 -56 -5 -64 -16 -6
-16 -8 5 -25 26 -21 28 -30 6 -30 -9 0 -14 -6 -11 -12 2 -7 11 -12 20 -12 12
1 15 -5 10 -27 -5 -24 -3 -28 11 -23 12 5 15 2 11 -12 -3 -11 1 -6 9 10 8 18
22 30 34 31 12 1 19 -2 16 -6 -2 -4 0 -10 5 -13 5 -4 12 -2 16 4 3 5 11 10 16
10 6 0 7 -5 3 -12 -5 -8 0 -9 15 -5 l22 5 -24 -31 c-31 -43 -41 -68 -21 -60 7
3 14 11 14 19 0 8 5 14 10 14 6 0 10 8 10 18 1 14 2 15 9 2 13 -24 8 -93 -8
-98 -9 -3 -11 1 -6 17 9 28 -12 27 -38 -1 -13 -15 -18 -17 -14 -6 3 9 0 24 -8
34 -7 10 -11 24 -8 30 3 8 -2 11 -16 7 -11 -3 -19 -9 -16 -13 6 -9 -25 -23
-33 -15 -3 3 0 5 7 5 7 0 9 5 6 10 -12 20 -26 -3 -20 -33 5 -29 5 -30 -9 -14
-10 13 -16 15 -21 7 -16 -26 -25 7 -10 36 17 33 19 48 6 40 -5 -3 -11 4 -14
16 -4 12 -2 25 2 28 5 3 6 20 4 37 -3 18 -9 30 -14 27 -5 -3 -9 2 -9 10 0 9
-4 16 -10 16 -13 0 -13 47 1 52 15 5 0 38 -18 38 -12 0 -13 3 -4 14 7 8 8 17
3 20 -12 7 -22 56 -11 56 4 0 11 -5 15 -11z m3623 -1080 c-10 -20 -9 -21 29
-14 31 5 43 2 57 -12 18 -17 18 -18 0 -22 -11 -2 -21 2 -23 8 -4 13 -41 14
-60 2 -11 -7 -9 -13 9 -30 32 -29 79 -27 102 5 17 23 18 27 3 43 -24 26 -21
28 34 21 46 -6 67 1 38 13 -29 12 61 6 111 -8 63 -16 157 -76 166 -105 3 -11
11 -20 16 -20 5 0 9 -4 9 -8 0 -4 -16 -6 -35 -4 -31 4 -41 -1 -79 -39 l-43
-44 -39 37 c-22 21 -45 36 -51 33 -9 -3 -13 5 -13 23 -1 23 -2 24 -10 10 -8
-13 -16 -15 -38 -8 -31 10 -162 19 -157 10 2 -3 -151 -6 -340 -6 -189 -1 -360
-5 -380 -8 -24 -5 -39 -14 -45 -29 -5 -12 -9 -16 -9 -8 -1 11 -4 11 -16 1 -12
-10 -15 -10 -15 0 0 8 -3 10 -7 7 -3 -4 -12 -2 -18 3 -9 7 -21 7 -40 0 -18 -7
-31 -7 -40 0 -16 13 -40 88 -31 97 8 8 179 21 386 28 80 3 176 10 213 16 38 6
126 14 195 18 70 5 128 9 130 10 1 0 -2 -8 -9 -20z m-1514 -310 c-32 -33 -41
-47 -26 -39 20 10 23 10 18 -3 -4 -11 0 -13 14 -10 12 4 29 -3 43 -16 12 -12
26 -18 31 -14 4 5 3 -2 -3 -13 -12 -23 -67 -48 -83 -38 -5 3 -9 0 -9 -6 0 -6
-15 -26 -33 -44 -31 -30 -35 -32 -55 -18 -14 9 -28 11 -39 6 -10 -4 -34 -8
-53 -9 -29 0 -35 -3 -32 -20 2 -19 -3 -20 -108 -20 l-110 0 5 26 c5 21 0 31
-19 47 -14 10 -23 21 -21 24 3 3 -2 5 -10 5 -9 0 -14 -6 -11 -12 2 -6 -2 -12
-10 -12 -7 0 -11 4 -8 9 8 13 -10 10 -25 -4 -11 -10 -13 -10 -7 0 4 6 3 12 -1
12 -5 0 -15 -6 -23 -12 -8 -7 -6 -2 5 11 18 22 18 24 2 18 -10 -4 -16 -3 -13
2 3 5 -3 19 -13 32 -10 13 -21 38 -24 54 -5 25 -4 24 12 -10 29 -64 53 -80
118 -77 79 3 293 39 350 58 62 21 100 44 142 88 19 20 37 36 40 36 3 0 -17
-23 -44 -51z m409 5 c69 -24 157 -110 200 -195 45 -89 60 -164 53 -264 -15
-243 -190 -401 -386 -351 -34 9 -82 29 -106 46 -46 32 -115 106 -115 124 0 6
13 -5 28 -24 74 -96 158 -142 256 -143 257 -2 401 336 261 614 -59 115 -158
187 -275 199 -64 7 -65 7 -14 9 28 0 72 -6 98 -15z m-1966 -8 c80 -41 102
-148 48 -229 -12 -18 -43 -42 -69 -55 -44 -21 -49 -21 -76 -7 -62 32 -93 99
-82 176 16 100 101 155 179 115z m-372 -62 c13 -3 24 -12 24 -20 0 -8 5 -14
11 -14 5 0 8 -4 5 -9 -9 -13 66 -19 92 -8 17 8 26 7 39 -5 29 -29 6 -41 -68
-35 -75 6 -96 -5 -86 -45 5 -21 5 -21 -7 -5 -15 20 -26 22 -26 5 0 -7 -8 -22
-16 -33 -15 -19 -15 -19 -9 6 4 16 2 30 -4 33 -6 4 -11 -1 -12 -11 0 -14 -2
-13 -10 5 -5 13 -13 20 -19 17 -6 -4 -8 -9 -6 -13 2 -4 -7 -8 -20 -8 -23 -2
-25 1 -28 46 -1 9 -13 16 -31 18 -103 9 -127 32 -32 31 86 -2 109 0 102 11 -3
6 5 14 19 20 22 8 56 50 41 50 -4 0 -3 6 2 13 5 8 9 3 11 -15 2 -20 10 -30 28
-34z m-193 -225 c14 -1 49 -6 142 -20 39 -6 131 -19 206 -29 74 -9 146 -24
160 -31 17 -9 80 -14 212 -17 l187 -4 0 -88 c0 -61 -4 -89 -12 -93 -10 -3
-525 6 -710 12 -15 1 -18 11 -18 67 0 41 -4 63 -10 59 -5 -3 -10 -1 -10 4 0 6
4 11 9 11 5 0 11 10 13 23 3 22 5 22 148 21 131 -1 138 -1 70 7 -175 21 -356
51 -392 66 -21 8 -43 24 -49 34 -5 11 -15 16 -21 13 -7 -4 -8 -3 -4 5 5 8 16
4 38 -14 16 -14 35 -25 41 -26z m3577 1 c12 -9 9 -15 -20 -39 -58 -49 -232
-81 -515 -97 -108 -6 -118 -5 -105 9 8 8 53 27 100 43 47 15 90 31 96 36 7 5
16 8 20 6 5 -1 43 6 84 16 142 32 311 45 340 26z m-2134 -169 c-16 -17 -16
-19 1 -25 15 -6 11 -12 -22 -43 l-40 -37 60 -27 c33 -16 72 -28 87 -29 15 0
29 -3 31 -7 3 -5 -32 -6 -77 -3 -80 5 -84 6 -151 56 -81 59 -126 84 -154 84
-11 0 -22 4 -25 9 -7 12 74 -7 91 -20 7 -6 17 -8 22 -5 16 11 1 36 -23 37 -19
1 -19 2 4 9 36 12 100 12 100 0 0 -15 36 -12 50 5 7 8 24 15 38 15 24 0 24 -1
8 -19z"/>
<path d="M1780 2931 c0 -28 -8 -36 -32 -32 -16 2 -46 -33 -41 -47 5 -12 2 -12
-16 -2 -20 10 -23 9 -28 -9 -3 -13 -12 -20 -22 -19 -13 2 -15 -5 -13 -36 3
-31 0 -37 -12 -33 -8 3 -20 0 -26 -8 -6 -8 -18 -11 -25 -9 -8 3 -22 1 -32 -6
-16 -10 -14 -11 10 -7 15 2 27 0 27 -5 0 -15 -32 -22 -51 -10 -10 6 -20 8 -23
3 -3 -4 10 -13 29 -18 29 -9 36 -8 51 8 9 10 27 19 38 19 20 -1 20 -2 4 -14
-25 -19 -24 -56 2 -56 11 0 20 4 20 8 0 5 10 14 23 20 19 9 19 11 3 11 -15 1
-16 4 -7 15 10 11 8 17 -6 26 -12 8 -13 10 -3 7 20 -6 54 18 46 32 -4 6 5 13
19 17 14 3 25 12 25 20 0 8 8 14 18 14 9 0 24 5 32 11 11 7 6 8 -20 3 -19 -3
-41 -11 -49 -18 -8 -6 -16 -10 -18 -8 -10 7 -23 0 -23 -13 0 -8 -5 -15 -11
-15 -18 0 16 45 37 49 25 4 55 31 48 42 -10 16 9 9 21 -7 10 -14 17 -15 48 -5
21 7 37 17 37 23 0 7 -4 7 -12 1 -18 -14 -59 -23 -52 -12 3 5 12 9 21 9 9 0
13 6 10 14 -3 8 1 17 9 20 9 3 12 11 8 17 -5 8 -8 8 -14 0 -3 -7 -14 -9 -23
-5 -9 3 -15 10 -12 14 3 5 1 11 -5 15 -6 4 -10 -6 -10 -24z"/>
<path d="M1055 1218 c-72 -57 -72 -170 1 -227 33 -26 70 -27 110 -2 78 48 85
184 12 235 -41 29 -48 21 -48 -48 0 -63 1 -65 40 -96 54 -43 44 -50 -14 -10
-25 17 -46 27 -46 22 0 -4 -20 -18 -45 -30 -25 -12 -45 -20 -45 -17 0 2 20 17
43 34 38 26 44 35 45 68 1 21 4 50 8 66 5 22 2 27 -14 27 -11 0 -32 -10 -47
-22z"/>
<path d="M2600 1399 c-13 -6 -36 -7 -50 -4 -17 4 -21 3 -11 -4 10 -7 6 -11
-17 -16 -18 -3 -37 -3 -44 1 -7 4 -10 3 -5 -1 10 -12 -49 -36 -71 -29 -12 4
-13 3 -4 -3 9 -7 -2 -16 -38 -33 -61 -29 -65 -33 -43 -51 9 -8 14 -9 10 -3 -4
7 0 15 9 18 24 9 31 7 14 -5 -11 -8 -5 -9 25 -6 l40 5 -30 -13 c-16 -7 -33
-11 -37 -8 -5 2 -8 -1 -8 -6 0 -27 203 3 248 36 38 28 38 40 0 35 -33 -4 -33
-4 -10 13 25 18 20 41 -7 29 -9 -4 -27 -6 -41 -5 -18 0 -21 -2 -11 -8 10 -7
11 -15 3 -37 -6 -16 -11 -23 -11 -16 -1 6 -6 12 -12 12 -5 0 -7 -5 -3 -12 4
-7 3 -8 -4 -4 -17 10 -15 36 3 36 9 0 12 6 9 15 -4 8 -11 12 -18 8 -7 -4 -8
-3 -1 5 6 5 45 18 87 27 43 9 75 21 72 26 -6 11 -12 11 -44 -2z"/>
<path d="M0 995 l0 -78 103 7 c56 3 110 6 120 6 10 0 17 8 17 20 0 11 -5 20
-11 20 -6 0 -8 -8 -5 -17 5 -15 3 -14 -10 2 -8 11 -21 19 -28 17 -7 -1 -19 5
-26 13 -10 12 -10 15 1 16 8 1 4 4 -9 7 -13 4 -22 11 -20 15 4 13 -41 34 -89
42 l-43 7 0 -77z"/>
</g>
</svg>
