<?xml version="1.0" standalone="no"?>
<!DOCTYPE svg PUBLIC "-//W3C//DTD SVG 20010904//EN"
 "http://www.w3.org/TR/2001/REC-SVG-20010904/DTD/svg10.dtd">
<svg version="1.0" xmlns="http://www.w3.org/2000/svg"
 width="526.000000pt" height="340.000000pt" viewBox="0 0 526.000000 340.000000"
 preserveAspectRatio="xMidYMid meet">
<metadata>
Created by potrace 1.15, written by Peter Selinger 2001-2017
</metadata>
<g transform="translate(0.000000,340.000000) scale(0.100000,-0.100000)"
fill="#000000" stroke="none">
<path d="M1304 3353 c3 -27 17 -75 30 -108 26 -63 26 -76 1 -55 -21 17 -30 6
-30 -36 0 -23 5 -34 15 -34 12 -1 11 -3 -3 -14 -16 -12 -16 -15 -3 -29 8 -8
12 -18 8 -22 -4 -5 1 -5 10 -2 14 5 16 1 11 -29 -4 -22 -2 -34 6 -34 6 0 12
-12 12 -27 1 -25 3 -24 12 10 6 22 17 37 26 38 11 0 12 2 4 6 -7 2 -13 9 -13
14 0 4 7 6 16 2 8 -3 13 -12 9 -21 -3 -8 2 -23 11 -33 13 -14 15 -30 11 -68
-5 -40 -3 -49 8 -45 15 6 25 36 25 77 0 36 35 66 77 67 32 0 43 -12 35 -42 -5
-19 -22 -25 -22 -8 0 6 -7 10 -15 10 -20 0 -19 -16 1 -24 10 -4 13 -13 9 -27
-4 -12 -1 -27 8 -37 10 -12 13 -29 8 -62 l-6 -44 -18 27 c-13 20 -15 32 -8 46
8 14 5 21 -15 31 -13 8 -22 20 -20 27 3 7 1 23 -5 35 -7 18 -9 13 -5 -24 2
-26 0 -45 -5 -42 -5 3 -9 2 -9 -3 0 -4 -12 -21 -26 -38 -21 -25 -24 -27 -19
-8 5 20 4 21 -19 10 -14 -7 -27 -19 -30 -27 -3 -11 -4 -10 -5 3 -1 14 -8 18
-33 15 -28 -2 -33 -7 -33 -28 0 -24 3 -25 50 -23 28 1 75 5 105 10 46 7 59 6
73 -8 16 -15 14 -16 -25 -12 -24 2 -51 5 -61 7 -13 3 -17 0 -13 -11 3 -8 6
-21 6 -29 0 -8 9 -14 20 -14 11 0 20 7 20 15 0 19 46 20 53 2 5 -15 87 -11 87
4 0 12 67 11 75 -1 13 -21 25 -9 24 23 -1 17 -3 24 -6 15 -5 -19 -42 -23 -77
-9 -24 9 -10 20 32 23 29 2 30 3 16 20 -14 15 -19 15 -38 3 -20 -14 -23 -13
-33 15 -10 26 -9 30 5 30 12 0 13 3 5 8 -7 4 -15 37 -19 73 -6 57 -4 67 11 73
10 3 15 12 11 21 -3 8 -1 15 4 15 6 0 10 -9 10 -20 0 -12 7 -20 16 -20 10 0
14 5 10 16 -4 9 -2 13 5 8 8 -4 9 1 4 16 -5 17 -4 20 5 15 9 -6 11 0 8 23 -4
25 0 33 15 38 11 4 29 15 40 25 17 15 18 21 7 34 -10 12 -10 15 4 15 10 0 14
5 11 10 -3 6 -1 10 4 10 6 0 11 9 11 21 0 11 -4 17 -10 14 -5 -3 -10 4 -10 15
0 16 -5 20 -15 16 -8 -3 -15 0 -15 7 0 7 -7 3 -15 -7 -14 -19 -16 -16 -19 17
-1 6 -5 15 -11 20 -5 4 11 5 38 2 28 -3 47 -1 47 5 0 5 9 10 21 10 11 0 17 -4
14 -10 -3 -5 -1 -10 4 -10 6 0 11 11 11 24 0 44 -8 52 -46 48 -29 -4 -34 -8
-29 -23 5 -13 1 -19 -10 -19 -12 0 -15 6 -10 20 4 13 1 22 -7 25 -8 3 -83 4
-168 3 -144 -3 -153 -4 -137 -20 25 -24 21 -27 -18 -15 -38 11 -45 23 -17 30
9 3 -7 5 -36 6 l-53 1 5 -47z"/>
<path d="M4635 3319 c-181 -8 -459 -41 -840 -100 -448 -70 -611 -110 -654
-163 -8 -9 11 -3 45 14 86 43 359 100 748 155 184 26 254 29 341 15 44 -7 47
-9 25 -15 -14 -5 -66 -29 -116 -55 -78 -41 -90 -44 -89 -28 2 25 16 34 98 59
38 11 67 22 64 25 -6 7 -202 -13 -266 -27 -50 -10 -53 -13 -36 -25 16 -12 17
-14 2 -20 -10 -3 -17 -12 -17 -20 0 -21 -23 -17 -38 7 -9 14 -19 18 -34 13
-11 -3 -30 -1 -42 6 -48 25 -216 -87 -246 -165 -5 -14 -14 -25 -20 -25 -16 0
-12 9 20 50 39 49 39 74 0 30 -24 -27 -31 -30 -36 -17 -3 10 -4 23 -1 31 12
29 -19 22 -64 -15 -32 -27 -49 -35 -56 -28 -7 7 -13 7 -17 1 -3 -6 -2 -13 3
-17 6 -3 8 -12 4 -20 -4 -11 3 -15 30 -15 19 0 40 -6 46 -13 13 -16 5 -28 -15
-20 -8 3 -22 2 -31 -1 -15 -6 -15 -8 -3 -16 12 -8 12 -10 1 -10 -8 0 -20 -8
-27 -17 -12 -17 -13 -16 -14 5 0 34 -27 26 -41 -13 -7 -19 -18 -35 -24 -36 -5
0 4 -7 20 -14 l30 -14 -30 -1 c-20 0 -26 -3 -19 -10 7 -7 34 -7 85 0 111 15
129 20 129 36 0 8 4 22 9 32 6 9 12 29 16 45 9 46 24 30 27 -29 l3 -57 35 -2
c181 -13 315 -28 347 -40 52 -19 30 -18 -154 4 -226 28 -236 29 -260 20 -12
-4 -70 -13 -130 -20 -111 -11 -133 -17 -115 -28 9 -5 56 -6 260 -2 33 1 51 5
47 11 -3 6 -1 10 4 10 6 0 11 -5 11 -12 0 -8 33 -10 123 -5 67 3 131 1 142 -3
12 -5 -35 -10 -125 -11 -129 -2 -137 -3 -70 -10 41 -3 -40 -5 -180 -3 -140 2
-293 0 -340 -4 -64 -6 20 -10 330 -16 421 -9 515 -12 566 -18 24 -2 28 0 26
16 -2 11 1 15 7 11 6 -3 11 1 11 10 0 14 23 15 240 10 148 -4 240 -3 240 3 0
17 43 21 64 6 11 -7 41 -14 66 -14 25 0 51 -5 58 -12 16 -16 16 5 1 35 -16 30
-28 37 -71 37 -24 0 -46 8 -65 24 -36 30 -87 56 -110 56 -10 0 -23 4 -30 8 -6
4 14 7 45 7 49 0 213 11 277 18 19 2 20 -4 20 -96 0 -74 4 -100 15 -107 9 -5
19 -5 27 2 9 7 17 7 26 1 6 -6 24 -13 40 -15 27 -5 27 -5 27 51 1 45 3 52 11
37 6 -10 9 -33 6 -52 -4 -25 -2 -34 8 -34 9 0 12 6 8 15 -3 9 2 22 12 29 17
12 17 18 5 60 -7 26 -17 49 -21 52 -5 3 -9 16 -9 29 0 13 -4 26 -9 29 -4 3
-14 27 -21 53 -13 48 -38 90 -27 45 3 -13 1 -20 -5 -16 -5 4 -7 21 -4 39 4 19
2 36 -4 40 -5 3 -10 16 -10 28 1 17 5 12 20 -18 11 -22 19 -45 20 -51 0 -6 8
-21 19 -33 10 -11 33 -70 50 -130 26 -88 30 -116 23 -143 -8 -31 -7 -33 12
-33 12 1 27 4 33 8 13 8 23 -2 23 -25 0 -19 -1 -19 -145 -20 l-60 0 65 -8 c69
-8 212 -10 171 -3 -19 4 -21 7 -10 13 11 7 7 16 -19 43 -24 25 -44 65 -74 153
-22 65 -42 128 -43 139 -2 11 -8 39 -14 63 -7 23 -9 47 -5 53 3 6 7 24 8 39 3
39 13 47 37 32 11 -7 25 -10 31 -6 6 4 8 3 5 -4 -5 -6 1 -8 14 -5 15 4 17 8 8
14 -8 5 -1 7 19 7 20 -1 28 -4 21 -9 -10 -6 -10 -22 0 -78 13 -69 13 -71 43
-71 23 0 29 -4 24 -16 -3 -9 -6 -22 -6 -30 0 -8 -7 -14 -15 -14 -8 0 -15 -7
-15 -15 0 -19 4 -19 38 -1 26 13 28 19 30 90 1 51 -2 76 -9 76 -8 0 -8 5 1 15
16 19 13 22 -36 35 l-39 10 43 -4 c43 -4 51 1 30 22 -9 9 -9 12 0 12 31 0 7
19 -37 30 -49 12 -90 7 -102 -13 -4 -5 -21 -11 -39 -13 -27 -3 -31 -1 -26 13
4 10 4 14 0 10 -4 -4 -14 -1 -23 7 -9 7 -44 24 -78 36 -35 12 -61 26 -58 29 5
9 -42 9 -250 0z"/>
<path d="M37 3243 c-4 -3 -1 -15 5 -27 7 -11 12 -59 13 -106 0 -47 4 -91 8
-97 9 -14 28 -18 26 -5 -6 33 3 62 19 62 16 1 16 1 0 11 -26 15 -24 59 3 59
20 0 21 -4 17 -94 -2 -67 1 -99 10 -107 17 -18 15 -34 -3 -19 -9 7 -15 8 -15
2 0 -5 -9 -8 -20 -5 -11 3 -20 10 -20 15 0 6 -11 3 -25 -6 -31 -21 -35 -20
-35 5 0 11 -5 17 -10 14 -6 -3 -10 -40 -10 -81 0 -61 4 -79 20 -96 31 -33 23
-67 -8 -36 -9 9 -12 6 -12 -15 0 -22 5 -27 24 -27 31 0 36 15 37 113 l2 82 10
-72 c11 -80 19 -87 73 -58 16 8 38 15 49 14 11 0 1 -8 -24 -17 -49 -19 -66
-51 -56 -107 9 -52 16 -57 61 -41 36 12 42 12 62 -5 20 -16 44 -18 105 -10 4
1 7 8 7 16 0 8 5 15 10 15 6 0 10 -13 10 -29 0 -22 -5 -30 -17 -29 -10 0 -61
-3 -114 -7 -68 -6 -98 -5 -103 4 -9 14 -26 15 -26 1 0 -5 7 -10 15 -10 8 0 17
-12 20 -27 3 -16 10 -40 14 -55 10 -30 15 -27 -79 -41 -14 -3 -2 -5 27 -6 30
0 57 4 65 12 26 26 110 79 161 102 56 26 198 60 287 69 30 3 89 10 130 15 41
6 101 11 132 11 31 0 60 5 63 10 3 6 -1 10 -10 10 -9 0 -13 5 -10 10 9 14 -19
12 -33 -2 -9 -9 -12 -8 -12 8 0 20 -17 44 -32 44 -4 0 -15 -14 -23 -31 -9 -17
-19 -29 -22 -26 -2 3 0 15 7 26 7 15 7 21 0 21 -6 0 -9 12 -8 27 3 25 -1 28
-41 37 -31 7 -49 6 -63 -3 -11 -7 -21 -11 -22 -9 -1 2 -10 15 -19 31 l-17 27
95 0 c57 0 95 -4 95 -10 0 -20 16 -10 17 11 2 21 -1 21 -69 17 -85 -7 -169 2
-128 12 21 5 17 8 -22 14 -27 4 -48 11 -48 15 0 9 -130 1 -152 -10 -9 -5 -19
-22 -23 -39 -6 -29 -7 -30 -30 -12 -14 9 -25 24 -25 34 0 17 47 38 88 38 14 0
31 8 38 18 12 16 13 16 19 0 6 -15 16 -16 71 -11 55 5 64 4 64 -11 0 -13 11
-16 53 -17 28 -1 61 -3 72 -4 96 -12 95 -12 95 44 0 28 5 53 11 56 6 4 8 13 5
20 -2 7 1 18 7 24 9 9 8 10 -7 5 -12 -5 -17 -4 -13 3 9 15 -35 22 -191 29 -90
5 -155 3 -191 -5 -52 -11 -96 -36 -96 -56 -3 -46 -19 -105 -30 -105 -7 0 -20
-3 -29 -6 -9 -3 -16 -1 -16 5 0 6 7 11 16 11 12 0 15 6 10 23 -3 12 -6 30 -6
39 0 9 -9 20 -20 23 -19 6 -20 15 -20 126 0 92 3 119 13 119 22 0 26 -10 16
-37 -6 -17 -5 -38 5 -68 8 -23 12 -53 9 -66 -6 -22 -5 -23 9 -8 9 9 18 29 20
45 3 25 7 29 31 26 26 -3 27 -1 27 48 l0 50 48 1 c64 3 68 2 -337 34 -35 3
-67 7 -71 10 -4 2 -10 2 -13 -2z m813 -278 c-5 -6 -11 -34 -12 -61 -1 -27 -3
-43 -6 -36 -2 6 -15 12 -28 12 -15 0 -24 6 -24 15 0 10 -10 15 -32 15 -25 0
-29 -3 -18 -10 12 -7 12 -12 2 -22 -10 -10 -14 -10 -22 2 -5 8 -7 18 -4 22 3
4 -6 10 -20 14 -27 6 -40 36 -23 53 6 6 44 11 83 11 40 0 76 5 79 10 5 8 11 7
21 -1 10 -8 11 -15 4 -24z m-156 -311 c31 -19 11 -31 -65 -38 -40 -3 -103 -13
-140 -22 -38 -9 -74 -14 -79 -12 -6 2 8 18 31 36 l43 32 -82 0 c-46 0 -82 -4
-82 -10 0 -5 -7 -7 -15 -4 -8 4 -15 12 -15 19 0 10 36 13 151 14 84 0 153 2
155 4 7 6 79 -8 98 -19z"/>
<path d="M533 3194 c14 -4 17 -17 17 -70 l0 -64 70 0 70 0 0 59 0 60 33 4 c17
2 -4 5 -48 6 -44 0 -98 3 -120 6 -22 2 -32 2 -22 -1z"/>
<path d="M988 3059 c-2 -72 1 -112 10 -129 l13 -25 -6 28 c-5 27 -5 27 45 27
l50 0 0 59 c0 33 4 70 9 84 13 35 3 44 -61 52 l-57 7 -3 -103z"/>
<path d="M2550 3017 c0 -17 -46 -61 -57 -54 -4 2 -19 -6 -33 -19 -13 -13 -19
-24 -13 -24 6 0 18 7 27 15 11 11 28 13 75 8 63 -6 67 -9 72 -63 4 -42 -22
-74 -52 -65 -11 4 -19 2 -19 -4 0 -10 7 -13 26 -10 4 0 10 -5 14 -11 5 -9 17
-4 39 16 21 18 27 30 20 35 -8 5 -4 15 13 32 24 24 27 24 56 10 36 -17 62 -12
62 13 0 13 -7 15 -34 10 -22 -4 -37 -2 -42 5 -5 8 -3 10 7 4 12 -7 12 -5 1 6
-11 12 -14 12 -22 -1 -8 -13 -11 -13 -19 -1 -5 8 -10 9 -12 2 -8 -21 -67 38
-73 74 -7 33 -36 51 -36 22z"/>
<path d="M3071 2810 c-13 -11 -34 -20 -47 -20 -13 0 -24 -4 -24 -10 0 -5 -17
-14 -37 -19 -54 -15 -76 -12 -28 4 54 18 12 18 -70 1 -33 -7 -61 -9 -63 -4 -2
4 -22 9 -45 10 -37 1 -38 2 -9 5 47 6 43 33 -6 33 -37 0 -38 -1 -34 -35 4 -32
6 -34 35 -28 21 4 28 3 23 -5 -8 -13 220 -8 384 9 132 13 152 17 145 29 -3 5
-16 6 -28 2 -12 -4 -44 -7 -72 -6 -129 3 -140 4 -126 13 8 5 19 8 25 7 6 -2 8
-1 4 1 -4 2 -4 11 -1 19 7 18 3 17 -26 -6z"/>
<path d="M2002 2741 c-41 -5 -59 -14 -84 -39 -29 -28 -30 -32 -13 -33 28 -2
20 -3 130 20 54 12 113 21 130 21 16 0 40 3 53 6 18 5 20 9 11 20 -12 15 -125
17 -227 5z"/>
<path d="M2284 2704 c18 -13 16 -14 -26 -14 -25 0 -99 -12 -164 -26 -66 -14
-136 -29 -156 -34 -21 -4 -43 -12 -50 -17 -14 -10 -92 -35 -120 -38 -28 -2
-131 -86 -120 -97 12 -12 35 -1 27 12 -3 5 3 9 12 8 10 0 56 16 103 36 46 21
116 46 155 57 162 45 525 91 678 86 31 -1 57 0 57 3 0 3 133 4 295 2 176 -1
295 1 295 7 0 5 -10 9 -22 9 -143 0 -878 13 -923 16 -54 4 -58 3 -41 -10z"/>
<path d="M160 2387 c0 -3 21 -18 46 -33 25 -15 50 -38 55 -51 5 -13 13 -21 19
-18 6 3 7 -1 4 -9 -3 -9 -1 -16 5 -16 6 0 11 5 11 12 0 6 12 1 27 -13 17 -16
24 -18 21 -8 -4 9 -2 22 3 30 6 10 9 8 9 -10 0 -24 0 -24 16 -5 15 18 15 18 9
-3 -5 -17 -2 -23 10 -23 24 0 12 49 -18 73 l-21 19 29 -4 c26 -3 30 -6 27 -32
-3 -24 0 -28 17 -23 11 2 28 -1 39 -9 15 -11 23 -11 36 -1 15 11 16 18 5 58
l-12 46 -101 7 c-56 3 -131 9 -168 12 -38 4 -68 4 -68 1z"/>
<path d="M523 2314 c4 -4 47 -13 95 -20 48 -6 71 -12 52 -12 -19 0 -59 3 -88
7 -46 7 -52 6 -47 -10 5 -15 -18 -35 -37 -31 -5 1 -13 -7 -20 -17 -6 -11 -18
-17 -26 -13 -13 4 -14 -5 -10 -61 3 -37 2 -67 -3 -67 -5 0 -9 6 -9 13 0 8 -3
8 -9 -2 -11 -17 -51 -25 -51 -10 0 5 -4 7 -10 4 -5 -3 -10 1 -10 9 0 9 -4 16
-10 16 -5 0 -13 1 -17 3 -4 1 -10 -10 -14 -26 -9 -33 15 -50 66 -45 19 2 34
-1 34 -7 0 -5 -8 -9 -18 -7 -10 1 -40 -12 -67 -30 -59 -39 -64 -66 -17 -88 27
-13 31 -19 26 -40 -7 -31 -4 -28 -33 -34 -54 -12 -119 -39 -135 -56 -16 -18
-16 -18 7 -13 12 3 29 10 36 16 7 5 15 7 19 3 3 -3 1 -6 -5 -6 -7 0 -12 -5
-12 -11 0 -6 8 -8 18 -5 16 6 16 5 0 -8 -18 -13 -26 -32 -10 -22 18 11 92 23
92 16 0 -5 -8 -11 -17 -14 -10 -3 -5 -4 10 -2 21 3 27 0 23 -10 -4 -9 2 -14
17 -15 21 -1 21 -1 -2 -8 l-24 -7 28 -18 c27 -18 27 -20 10 -32 -15 -11 -13
-13 21 -10 44 2 67 -14 58 -41 -6 -16 -5 -17 7 -2 8 9 30 19 49 23 27 5 32 4
22 -6 -14 -14 -16 -32 -3 -23 5 3 12 1 15 -4 7 -11 -20 -22 -38 -15 -24 9 -27
-12 -7 -58 11 -23 20 -37 20 -30 1 7 -4 22 -9 33 -6 11 -7 19 -1 19 12 0 21
-25 21 -57 0 -16 7 -27 19 -30 11 -3 17 -11 15 -17 -5 -14 117 -71 137 -64 6
2 -18 17 -55 32 -37 16 -65 31 -62 33 3 3 37 -10 75 -27 67 -31 75 -40 74 -78
-1 -10 8 -13 28 -10 26 4 29 2 23 -16 -9 -30 -13 -32 -28 -10 -20 27 -27 14
-16 -27 13 -44 13 -129 0 -129 -9 0 -11 30 -14 168 -1 29 6 25 -149 95 -52 23
-72 38 -82 61 -12 29 -13 26 -8 -39 4 -55 3 -68 -7 -58 -8 8 -11 36 -9 91 2
44 0 78 -5 75 -4 -3 -12 1 -17 8 -5 9 -3 16 9 20 14 6 14 8 2 11 -8 3 -30 10
-49 16 -32 11 -33 10 -29 -13 3 -14 0 -26 -8 -29 -18 -7 -26 5 -13 21 9 9 8
13 0 13 -6 0 -16 -11 -23 -25 l-11 -24 -29 20 c-26 19 -30 33 -10 35 4 0 21 3
37 7 28 7 31 11 27 42 -3 24 -15 44 -40 66 -31 27 -41 31 -78 26 -24 -2 -41
-1 -38 4 3 5 0 9 -6 9 -7 0 -10 -6 -7 -14 3 -7 0 -31 -7 -51 -18 -51 -10 -78
20 -71 34 9 39 -11 7 -28 -15 -8 -22 -15 -15 -16 6 0 12 -6 12 -14 0 -16 48
-28 56 -14 3 4 10 6 15 2 6 -4 6 -11 -2 -20 -9 -11 -8 -14 4 -14 8 0 18 6 20
13 3 7 6 6 6 -5 2 -30 -37 -32 -80 -4 -21 15 -39 24 -39 21 0 -3 -10 0 -22 6
-21 11 -22 11 -9 -5 17 -21 13 -25 -19 -15 -14 4 -19 7 -12 8 7 1 10 6 7 11
-11 19 -24 0 -20 -30 4 -31 -15 -46 -35 -27 -10 9 -12 8 -7 -6 8 -21 -12 -67
-28 -67 -8 0 -12 -35 -13 -120 -1 -89 2 -120 11 -120 41 1 489 88 480 93 -6 4
-13 15 -16 26 -4 17 -2 18 13 8 19 -11 33 -54 20 -62 -9 -5 -334 -70 -442 -87
l-68 -12 0 -563 0 -563 2097 0 c1918 0 2101 1 2140 16 24 9 43 21 43 26 0 6 7
8 15 4 8 -3 15 -2 15 3 0 5 11 12 25 15 14 4 25 11 25 16 0 14 -13 13 -28 -2
-9 -9 -12 -9 -12 -1 0 7 8 14 18 17 10 4 27 14 38 24 11 10 71 52 134 94 100
65 160 109 207 148 48 40 226 150 243 150 12 0 19 4 16 9 -3 5 15 24 40 42 25
19 55 43 67 54 12 12 37 30 55 40 17 11 32 22 32 25 0 3 20 16 45 30 l45 25 0
332 c0 240 -3 334 -12 339 -6 4 -8 3 -5 -3 6 -9 -17 -26 -27 -20 -1 1 -10 -4
-19 -12 -15 -12 -17 -11 -17 3 0 12 -11 8 -47 -18 -62 -44 -259 -166 -267
-166 -17 0 -150 -87 -171 -112 -29 -34 -39 -36 -29 -5 4 12 11 40 15 62 l6 40
3 -40 c2 -38 2 -38 10 -12 27 88 19 288 -16 425 -24 93 -103 242 -129 242 -3
0 -4 -4 -1 -8 3 -5 -1 -9 -9 -9 -10 0 -12 4 -5 12 14 16 -15 40 -69 60 -28 10
-74 14 -130 13 l-86 -2 85 -5 85 -6 -97 -8 c-54 -4 -104 -10 -113 -13 -8 -3
-15 -1 -15 4 0 6 10 13 23 15 12 3 0 3 -28 1 -96 -7 -321 -62 -387 -94 -71
-35 -146 -94 -179 -143 -16 -23 -9 -19 26 17 49 49 140 113 192 134 43 18 293
70 293 61 0 -4 -8 -10 -17 -13 -42 -12 -151 -35 -193 -41 -80 -12 -189 -71
-255 -140 -85 -88 -114 -142 -32 -60 120 120 262 164 375 115 259 -112 327
-639 142 -1118 -105 -273 -312 -475 -486 -476 -120 0 -223 78 -290 219 -37 76
-64 183 -64 254 l0 44 -23 -21 c-26 -24 -173 -95 -231 -111 -61 -16 -33 3 105
72 106 53 127 67 141 97 9 19 22 40 27 47 17 19 13 23 -15 13 -43 -17 -41 -10
6 15 25 13 37 24 28 25 -10 0 -18 7 -18 15 0 22 -22 18 -60 -10 -19 -14 -52
-31 -72 -37 -21 -6 -44 -18 -51 -26 -10 -13 -9 -15 8 -8 17 7 92 36 160 61 13
5 17 5 10 -2 -5 -5 -44 -23 -85 -40 -105 -44 -521 -219 -605 -256 -86 -37
-324 -125 -422 -157 -40 -12 -73 -26 -73 -31 0 -5 -7 -9 -15 -9 -8 0 -15 -4
-15 -10 0 -5 -5 -10 -11 -10 -7 0 -17 -6 -23 -14 -12 -15 -96 -31 -96 -18 0 4
19 13 43 19 23 7 51 19 62 28 18 15 17 15 -13 0 -34 -17 -62 -14 -62 5 0 5 3
9 8 9 24 -4 42 3 42 16 0 12 -5 13 -26 4 -31 -11 -33 -10 -39 20 -7 37 -17 66
-25 71 -4 3 -17 24 -29 47 -12 24 -26 43 -31 43 -6 0 -10 6 -10 14 0 10 12 12
45 10 24 -2 47 1 50 6 3 6 15 10 26 10 13 0 18 4 13 12 -5 8 -2 9 10 5 22 -9
68 2 60 14 -3 5 6 5 20 -1 16 -6 26 -6 26 0 0 5 19 14 43 21 23 6 44 14 47 19
8 11 101 50 121 50 10 0 58 21 105 46 47 25 88 43 91 40 3 -3 12 2 20 10 9 8
18 12 22 9 3 -4 -10 -20 -29 -36 -19 -16 -30 -29 -24 -29 5 0 23 12 40 27 65
58 111 90 168 116 65 30 70 31 61 17 -4 -6 10 1 31 15 20 14 43 25 51 25 7 0
24 7 36 15 34 22 306 108 322 101 8 -3 17 -1 20 5 4 5 11 7 16 4 15 -10 10 12
-7 29 -14 15 -13 16 9 16 18 0 27 -7 31 -26 4 -15 5 -28 4 -30 -9 -8 -204 -97
-210 -96 -5 1 -8 -3 -8 -9 0 -5 -4 -7 -10 -4 -5 3 -10 2 -10 -4 0 -12 -109
-75 -117 -68 -2 3 20 18 51 33 94 46 55 37 -55 -12 -118 -53 -128 -59 -79 -49
45 9 36 0 -13 -13 -28 -8 -35 -8 -30 1 4 6 -6 2 -21 -11 -16 -12 -33 -22 -38
-22 -5 0 -24 -11 -41 -24 -18 -13 -48 -27 -67 -31 -61 -13 -69 -21 -63 -63 8
-51 16 -56 57 -37 33 16 35 19 19 30 -16 12 -16 14 1 40 10 15 20 24 24 21 3
-4 0 -12 -6 -18 -18 -18 -14 -35 8 -41 17 -4 18 -2 9 14 -8 15 -6 19 6 19 10
0 13 -5 9 -12 -5 -7 -2 -9 9 -5 11 4 14 2 10 -9 -7 -19 -1 -18 86 15 42 16
116 42 165 57 50 15 117 41 150 57 119 57 170 78 184 72 12 -4 13 3 8 37 -23
169 -18 203 52 382 27 67 42 93 66 108 28 18 29 19 6 14 -14 -3 -89 -20 -168
-38 -79 -18 -138 -34 -131 -37 16 -5 -44 -25 -156 -52 -49 -12 -139 -35 -200
-52 -60 -16 -128 -33 -150 -37 -22 -4 -67 -14 -100 -23 -84 -22 -271 -39 -320
-28 -33 6 -23 8 55 9 107 1 320 40 394 72 27 11 52 18 56 15 5 -3 76 12 159
32 84 21 144 40 135 43 -9 4 89 32 217 64 210 52 285 75 253 76 -11 0 -63 -13
-318 -80 -65 -17 -123 -29 -129 -27 -12 4 365 107 393 107 12 0 18 4 15 10 -3
5 -16 10 -28 9 -49 0 -115 19 -76 22 8 1 25 3 39 4 14 2 37 -3 51 -11 15 -7
29 -10 33 -7 8 8 -56 31 -109 38 -26 4 -95 -5 -195 -25 -405 -81 -650 -121
-767 -127 -127 -6 -158 3 -80 24 90 24 205 53 267 67 36 9 52 14 36 12 -36 -5
-58 3 -50 16 4 6 -34 8 -100 6 -68 -2 -105 1 -103 7 2 6 60 11 138 13 171 4
387 -7 368 -19 -16 -11 -9 -9 195 30 94 19 155 35 165 46 15 15 13 16 -29 12
-25 -2 -35 -2 -22 0 29 6 28 21 -3 29 -14 3 -22 11 -18 17 3 5 1 7 -4 4 -6 -4
-46 -4 -89 0 -60 5 -72 9 -49 13 l30 7 -25 10 c-14 6 -27 7 -31 2 -3 -5 -25
-3 -48 6 -29 10 -81 15 -157 15 -69 0 -114 4 -114 10 0 6 -18 10 -40 10 -22 0
-40 -4 -40 -8 0 -13 -114 -6 -118 7 -6 19 -32 12 -42 -11 -6 -17 -9 -2 -10 57
-1 44 -5 98 -9 120 l-9 40 -2 -50 c-1 -27 -2 -81 -2 -120 0 -61 -1 -64 -6 -25
-5 34 -11 45 -24 44 -10 -1 -35 -3 -55 -4 l-38 -2 40 -10 c22 -6 43 -16 47
-22 5 -7 8 -6 8 3 0 8 3 12 6 8 3 -3 2 -13 -4 -22 -8 -16 -10 -16 -15 -1 -4 9
-11 16 -18 16 -6 0 -9 -6 -6 -14 8 -19 -27 -27 -90 -19 l-52 6 -4 -34 c-2 -19
-5 3 -5 48 -2 82 -21 199 -29 176 -6 -16 -63 -17 -63 -1 0 6 -3 9 -6 5 -4 -3
-2 -20 4 -36 7 -19 7 -31 1 -31 -5 0 -9 1 -9 3 0 10 -29 136 -35 150 -6 13 -3
16 9 11 12 -5 15 -2 10 12 -5 15 -2 14 10 -4 10 -12 21 -20 26 -17 5 3 16 -7
24 -22 8 -15 15 -23 16 -18 0 16 -28 55 -77 105 l-43 46 92 -8 c51 -4 107 -9
123 -11 17 -3 49 1 73 8 25 8 42 9 42 3 0 -5 4 -7 9 -4 5 4 12 0 14 -6 4 -10
11 27 9 52 0 3 25 6 56 8 32 1 122 9 202 17 273 29 335 34 440 41 58 3 108 8
111 10 4 2 53 8 110 13 57 6 212 24 344 40 301 38 459 56 700 81 105 11 195
22 200 24 22 9 -55 5 -267 -13 -123 -11 -295 -25 -383 -31 -166 -11 -495 -36
-600 -46 -33 -3 -73 -5 -88 -4 -16 0 -83 -6 -150 -14 -67 -8 -165 -18 -217
-21 -52 -3 -165 -10 -250 -16 -276 -18 -824 -16 -857 4 -4 3 -57 10 -118 16
-271 28 -296 32 -283 50 7 9 3 8 -11 -4 -24 -20 -65 -22 -88 -3 -7 6 -36 14
-65 18 l-53 8 43 1 c26 1 42 6 42 14 0 8 -21 13 -63 15 -34 2 -170 14 -302 27
-132 14 -269 28 -305 31 -36 4 -61 3 -57 -2z m1380 -268 c18 -7 57 -37 86 -65
29 -29 56 -50 59 -47 7 7 32 -14 32 -26 0 -6 -7 -5 -15 2 -25 21 -17 -1 10
-26 26 -24 33 -44 15 -44 -5 0 -10 -11 -10 -24 0 -21 -24 -52 -39 -50 -3 0
-14 -1 -23 -4 -21 -5 -23 -18 -6 -28 7 -4 8 -3 4 4 -10 17 10 15 27 -3 12 -11
16 -12 20 -2 2 6 7 10 10 7 14 -13 11 -174 -3 -165 -6 3 -7 -1 -4 -9 3 -9 1
-16 -5 -16 -6 0 -11 -7 -11 -15 0 -8 -4 -15 -10 -15 -5 0 -10 -6 -10 -14 0 -8
-14 -23 -31 -34 -28 -18 -34 -18 -60 -5 -16 8 -29 17 -29 19 0 3 6 2 13 -1 6
-3 2 2 -10 11 -13 9 -23 23 -23 30 0 8 -5 14 -11 14 -18 0 -57 51 -54 69 2 9
4 22 4 29 1 7 7 12 14 11 19 -2 57 12 57 22 0 4 -14 3 -30 -3 -48 -16 -59 -6
-59 57 0 31 -4 62 -9 68 -5 7 -8 26 -6 42 1 17 3 35 3 41 1 5 7 18 14 27 10
15 11 9 9 -33 -3 -43 -1 -50 15 -50 15 0 18 9 20 51 1 39 7 57 24 72 20 19 22
19 16 3 -6 -14 -4 -17 9 -12 12 5 15 2 10 -9 -4 -10 -2 -14 5 -9 6 3 9 17 6
30 -2 13 -1 21 4 19 4 -3 9 0 11 6 7 20 58 -31 59 -59 l0 -27 10 25 c9 23 5
30 -41 72 -31 29 -69 53 -98 62 -29 9 -38 15 -24 15 12 1 37 -5 55 -13z m-447
-22 c-3 -9 -9 -33 -12 -55 -5 -32 -4 -39 10 -39 12 0 16 9 16 37 0 35 22 73
43 73 6 0 7 -3 4 -7 -8 -7 11 -33 25 -33 6 0 7 7 4 16 -3 9 10 1 29 -17 19
-19 35 -39 35 -47 0 -7 7 -15 15 -18 12 -5 14 -25 10 -112 -2 -59 -8 -118 -14
-132 -5 -14 -10 -21 -10 -15 -1 5 -14 -5 -30 -23 -17 -17 -37 -32 -45 -32 -20
0 -21 16 -2 23 8 3 20 16 26 29 9 19 9 21 -2 8 -7 -8 -22 -16 -33 -18 l-20 -4
20 16 c15 12 17 16 5 17 -26 2 -45 -3 -52 -14 -5 -7 -8 -1 -8 14 0 14 -9 34
-20 44 -25 23 -26 39 0 32 10 -3 21 0 23 6 6 20 86 12 102 -9 16 -23 26 -15
29 23 2 27 0 29 -29 24 -26 -3 -27 -5 -10 -12 19 -7 19 -8 -2 -8 -13 -1 -23 3
-23 8 0 8 -52 6 -79 -4 -8 -3 -18 0 -23 7 -6 10 -8 8 -8 -4 0 -10 -6 -17 -12
-15 -7 1 -14 -8 -16 -21 -6 -40 -32 -6 -32 42 0 27 3 36 9 27 14 -21 54 5 48
31 -5 16 -3 18 6 9 13 -13 57 -15 57 -2 0 5 8 7 18 4 13 -3 18 2 19 17 2 19
-2 21 -30 14 -78 -17 -79 -17 -72 34 14 112 11 102 26 102 6 0 8 -7 5 -16z
m-879 -250 c4 -10 0 -20 -10 -26 -27 -15 -20 -25 27 -37 55 -13 93 -13 51 0
-16 6 -37 11 -44 13 -8 1 -17 8 -19 15 -5 14 36 6 78 -14 14 -7 50 -18 80 -25
30 -7 62 -18 70 -25 26 -21 44 -29 36 -17 -9 15 -4 15 41 -2 130 -49 530 -135
555 -120 7 5 8 2 2 -7 -5 -8 -9 -18 -9 -24 -1 -18 -71 -5 -575 105 -96 21
-204 45 -240 54 -36 10 -74 19 -85 22 -19 5 -18 4 3 -15 26 -23 28 -31 6 -31
-8 0 -12 5 -9 10 3 6 -4 10 -16 10 -16 0 -20 5 -16 20 3 11 1 20 -4 20 -5 0
-9 -4 -9 -10 0 -5 -5 -10 -11 -10 -6 0 -9 7 -5 15 3 8 1 15 -4 15 -5 0 -21 5
-37 11 -26 10 -27 12 -8 19 29 12 55 12 55 -1 0 -6 -9 -8 -22 -4 -18 4 -17 2
5 -10 26 -15 30 -15 53 0 13 8 24 24 24 34 0 32 26 43 37 15z m913 -415 c0
-16 4 -29 9 -29 5 0 11 -9 14 -21 4 -16 9 -19 23 -11 9 5 37 8 63 6 25 -1 36
-1 24 2 -12 3 -27 13 -35 22 -12 15 -11 16 5 3 12 -10 32 -12 67 -8 32 4 50 2
50 -5 0 -5 -7 -8 -15 -4 -8 3 -15 2 -15 -3 0 -4 18 -14 41 -21 39 -13 40 -14
17 -23 -12 -5 -40 -6 -60 -4 -45 6 -62 -10 -21 -18 15 -4 51 -12 78 -20 72
-19 105 -26 105 -21 0 2 -23 12 -51 21 -28 9 -48 19 -46 21 4 4 139 -36 177
-53 21 -9 27 -10 58 -13 18 -1 21 -4 10 -7 -10 -2 -18 -9 -18 -14 0 -6 -7 -6
-18 0 -23 12 -189 44 -204 39 -6 -2 15 -10 48 -17 46 -11 55 -15 39 -22 -13
-5 2 -8 45 -9 36 -1 59 -4 51 -7 -11 -5 -11 -7 0 -15 10 -7 9 -8 -6 -4 -11 3
-42 8 -68 12 -35 5 -47 10 -43 20 4 9 -2 14 -17 15 -12 1 -33 2 -47 3 -14 0
-27 3 -30 6 -3 3 -32 14 -65 24 -147 45 -173 66 -181 145 -3 36 -2 51 5 46 6
-3 11 -19 11 -36z m1610 11 c0 -5 -7 -10 -15 -10 -12 0 -146 -40 -388 -117
-93 -29 -284 -73 -312 -72 -11 1 25 12 80 25 129 31 455 127 450 133 -3 2 -33
-4 -67 -13 -105 -28 -352 -74 -363 -67 -5 3 4 7 20 9 33 3 58 8 260 52 77 16
149 27 160 24 11 -4 16 -3 12 2 -5 5 26 16 70 25 99 21 93 21 93 9z m-2100
-225 c36 -15 113 -46 171 -69 105 -41 106 -42 83 -59 -28 -21 -40 -21 -51 -3
-8 14 -194 89 -201 81 -2 -2 44 -27 102 -55 58 -29 106 -56 106 -61 0 -20 -86
7 -225 71 -160 75 -214 97 -219 92 -3 -3 -6 2 -6 11 0 34 150 29 240 -8z m225
-205 c-3 -5 -1 -10 4 -10 6 0 11 4 11 10 0 17 160 -10 187 -32 22 -17 -35 -57
-77 -53 -27 3 -31 1 -17 -7 10 -5 25 -7 33 -4 27 10 5 -36 -33 -72 -19 -18
-33 -36 -30 -39 3 -3 17 6 30 21 13 14 28 22 32 18 5 -4 5 -2 2 4 -4 6 2 19
13 29 11 10 20 13 20 7 0 -6 -4 -14 -10 -17 -5 -3 -10 -10 -10 -15 0 -6 17 0
37 11 31 18 35 18 23 3 -15 -18 -21 -74 -7 -74 4 0 7 5 7 10 0 6 8 10 18 10
15 0 15 2 2 11 -12 9 -12 10 3 5 10 -3 30 -6 43 -6 14 0 23 -4 20 -9 -8 -12
87 11 97 23 6 8 10 7 13 -1 3 -7 22 -10 52 -7 42 3 45 2 28 -10 -13 -11 -25
-12 -42 -6 -22 9 -24 8 -19 -18 4 -24 0 -29 -25 -39 -28 -11 -55 -1 -28 10 8
4 7 6 -4 6 -11 1 -16 -6 -15 -19 1 -14 22 -30 75 -55 40 -19 77 -35 81 -35 5
0 21 -16 35 -35 27 -36 26 -45 -4 -22 -9 6 7 -9 34 -35 28 -25 53 -42 54 -37
6 14 29 11 36 -6 3 -8 1 -15 -4 -15 -5 0 -6 -7 -3 -17 4 -11 3 -14 -5 -9 -7 4
-12 3 -12 -3 0 -5 5 -13 10 -16 6 -3 10 -11 10 -18 0 -6 -15 11 -34 38 -36 54
-115 124 -144 130 -29 5 -85 42 -71 47 7 2 -14 14 -47 27 -69 27 -199 37 -211
17 -5 -7 -21 -21 -36 -31 l-28 -18 5 29 c3 16 -2 5 -11 -23 -23 -76 -35 -65
-14 12 14 50 16 67 6 75 -16 13 -35 -50 -35 -114 0 -56 -19 -54 -21 2 -1 20
-3 29 -6 20 -5 -22 -19 -23 -26 -4 -11 28 -8 366 3 366 6 0 8 -4 5 -10z m605
-515 c30 -44 30 -45 14 -77 -16 -30 -16 -32 -1 -19 10 8 17 9 17 3 0 -10 -17
-25 -30 -28 -3 0 -17 -4 -32 -8 -15 -5 -35 -3 -48 4 -15 8 -20 8 -16 1 4 -6
21 -15 39 -21 l32 -10 -32 5 c-23 3 -32 1 -30 -8 1 -7 -8 -12 -20 -11 -25 1
-30 -15 -10 -35 13 -13 -11 -6 -75 22 -30 13 -39 30 -10 20 15 -6 15 -4 -2 15
-16 18 -17 24 -5 38 11 13 10 17 -4 25 -9 6 -17 18 -17 27 0 14 2 15 10 2 5
-8 12 -11 16 -7 4 4 12 -1 19 -10 9 -13 14 -13 20 -3 5 9 4 11 -3 6 -7 -4 -12
-2 -12 3 0 6 6 11 13 11 7 0 29 11 50 25 20 14 42 23 47 20 14 -9 12 18 -2 35
-11 12 -10 12 5 1 32 -25 20 -55 -20 -50 -3 0 -10 -6 -15 -15 -5 -9 -13 -14
-17 -11 -5 2 -15 -2 -22 -11 -7 -8 -8 -14 -3 -13 5 1 11 0 14 -1 26 -10 38 -6
35 11 -3 16 0 18 21 13 16 -4 24 -2 24 7 0 8 6 5 15 -7 13 -16 16 -17 25 -4 9
12 10 10 5 -10 -6 -24 -5 -24 9 -6 18 23 20 36 6 36 -5 0 -10 8 -10 18 -1 10
-6 6 -14 -13 l-13 -30 -6 25 c-11 46 -13 89 -5 84 4 -3 21 -25 38 -49z m-455
-105 c18 0 39 -29 40 -54 0 -12 6 -20 13 -18 7 1 15 -5 18 -13 4 -8 12 -15 18
-15 7 0 21 -8 32 -19 11 -10 40 -31 64 -46 33 -21 44 -24 51 -14 4 7 5 17 3
21 -11 18 24 6 42 -13 19 -22 19 -22 -4 -10 -13 7 -26 10 -29 8 -7 -8 30 -25
76 -36 27 -6 39 -5 35 1 -4 6 2 8 11 6 29 -5 30 -28 1 -28 -13 0 -27 -4 -30
-9 -6 -9 77 4 97 15 9 5 9 4 0 -6 -21 -23 -102 -38 -152 -28 -133 26 -285 153
-304 253 -4 17 -4 24 -1 18 3 -7 11 -13 19 -13z"/>
<path d="M3855 1564 c-11 -3 -27 -8 -35 -11 -8 -3 -21 -5 -29 -4 -7 1 -10 -2
-6 -8 3 -7 -2 -11 -14 -11 -11 0 -22 -4 -26 -10 -3 -5 -12 -7 -20 -3 -17 6
-65 -40 -135 -130 -25 -32 -55 -71 -68 -87 -13 -16 -27 -42 -32 -57 -5 -15
-23 -62 -40 -103 -34 -82 -54 -167 -65 -275 -4 -38 -12 -76 -17 -82 -7 -8 -7
-13 -1 -13 6 0 13 -39 16 -87 10 -139 47 -241 108 -302 112 -112 264 -91 399
56 56 62 76 93 48 77 -8 -4 -10 -3 -5 2 5 5 13 9 18 9 11 0 50 61 79 125 12
25 25 52 30 61 4 9 21 65 36 125 23 93 27 130 28 254 1 80 5 148 9 151 4 3 3
16 -2 30 l-10 24 0 -24 c-1 -33 -7 -24 -15 24 -5 31 -4 36 4 25 9 -11 10 -6 5
25 -7 50 -25 95 -36 95 -5 0 -9 7 -9 15 0 24 -59 83 -93 94 -44 14 -98 20
-122 15z m-132 -211 c-3 -10 -20 -30 -37 -45 l-31 -27 57 29 c48 24 57 26 62
13 4 -9 14 -13 26 -10 12 3 20 0 20 -7 0 -8 -15 -12 -45 -11 -25 1 -45 -2 -45
-7 0 -6 -7 -8 -15 -5 -12 5 -12 2 -3 -19 9 -19 8 -27 -2 -37 -10 -9 -11 -9 -6
1 11 19 -3 35 -20 21 -20 -17 -18 -40 4 -32 10 4 0 -14 -24 -43 -23 -27 -50
-65 -60 -84 -13 -26 -19 -31 -22 -17 -5 24 -27 21 -39 -5 -8 -19 -6 -25 15
-35 13 -7 28 -10 33 -7 5 3 9 -1 9 -8 1 -7 8 0 16 15 9 16 12 37 8 49 -4 14
-2 18 5 14 7 -5 8 -1 4 10 -5 13 -3 15 7 9 9 -5 11 -4 6 4 -12 19 61 101 89
101 13 0 27 5 30 10 3 6 1 10 -6 10 -7 0 -10 3 -6 6 3 3 12 2 19 -2 7 -5 31
-9 54 -10 23 -1 50 -6 60 -12 17 -10 15 -11 -13 -12 -18 0 -33 5 -33 10 0 6
-7 10 -16 10 -8 0 -12 -4 -9 -10 3 -5 -18 -20 -47 -33 -64 -29 -107 -75 -138
-150 -13 -31 -27 -54 -32 -51 -4 3 -8 0 -8 -7 0 -7 -3 -9 -7 -5 -5 4 -8 13 -8
19 0 7 -18 21 -40 31 -29 14 -35 21 -22 24 10 2 17 13 17 25 0 18 -2 19 -10 7
-23 -36 -8 15 24 78 42 83 113 175 128 166 7 -5 8 -2 4 5 -5 8 0 14 13 18 12
3 21 9 21 14 0 5 4 9 10 9 5 0 7 -8 3 -17z m223 -184 c16 -7 31 -12 34 -11 3
0 7 -8 7 -19 2 -18 -1 -17 -30 7 -25 21 -38 25 -66 20 -19 -3 -39 -10 -45 -17
-8 -8 -7 -10 4 -7 8 2 27 -8 42 -24 30 -30 38 -49 13 -28 -13 10 -15 9 -15 -9
0 -12 9 -29 20 -38 11 -10 20 -21 20 -25 0 -13 -18 -9 -34 8 -9 9 -16 11 -16
4 0 -6 -4 -8 -10 -5 -5 3 -10 2 -10 -3 0 -5 14 -12 30 -16 24 -4 32 -12 36
-36 4 -18 11 -27 18 -23 8 5 8 3 0 -8 -13 -15 -23 -109 -12 -109 3 0 8 6 11
13 2 6 7 9 11 6 10 -10 -42 -103 -79 -139 -32 -31 -75 -48 -75 -28 0 4 6 8 14
8 14 0 78 49 65 50 -3 0 -16 -9 -29 -20 -35 -30 -43 -24 -18 15 14 21 34 37
51 41 16 3 26 8 23 12 -3 3 0 12 6 21 10 13 9 13 -7 -1 -17 -14 -74 -23 -60
-10 6 6 -38 46 -53 48 -8 2 -11 -3 -8 -11 5 -14 -30 -32 -41 -21 -4 3 -1 6 5
6 7 0 12 5 12 12 0 6 -7 4 -18 -5 -10 -10 -22 -14 -27 -10 -11 11 2 -70 16
-101 6 -13 17 -22 24 -20 7 3 16 1 20 -5 3 -6 1 -11 -6 -11 -8 0 -8 -4 1 -15
7 -8 19 -15 26 -15 8 0 14 -5 14 -10 0 -6 -12 -4 -29 5 -43 22 -83 109 -79
170 3 46 5 49 41 61 21 7 37 9 37 3 0 -5 -10 -10 -22 -10 l-23 -2 23 -4 c27
-5 45 11 60 56 17 48 15 57 -8 36 -11 -10 -23 -15 -27 -12 -3 4 -1 7 5 7 7 0
12 9 12 20 0 22 -26 28 -33 8 -3 -10 -8 -10 -21 1 -15 13 -18 12 -23 -9 l-6
-22 -13 23 c-13 26 -7 50 7 28 7 -11 9 -11 9 1 0 66 145 204 191 183 3 -1 19
-8 35 -14z m-482 -308 c-3 -128 20 -234 65 -296 36 -49 55 -58 41 -18 -9 25
-8 26 4 11 16 -21 26 -23 26 -5 0 8 -11 19 -24 26 -13 7 -29 24 -35 38 -11 24
-10 24 26 -6 21 -17 39 -27 41 -21 7 20 28 -15 24 -39 -5 -24 -4 -25 11 -9 10
9 17 24 17 32 0 9 7 16 16 16 10 0 14 -6 10 -15 -3 -9 0 -15 10 -15 8 0 17 7
20 15 4 8 14 15 24 15 11 0 22 5 26 11 4 7 0 9 -13 5 -25 -8 -82 19 -59 27 9
4 20 -1 25 -11 6 -9 11 -12 11 -7 0 6 17 9 42 7 31 -3 45 0 54 13 8 11 20 15
32 11 11 -4 24 0 32 9 7 8 9 15 4 15 -4 0 2 10 14 23 45 49 100 191 70 185
-16 -4 -18 24 -1 29 23 8 26 -61 4 -133 -30 -100 -91 -194 -156 -244 -20 -15
-20 -14 0 8 16 19 17 25 5 32 -7 4 -23 5 -34 0 -25 -9 -35 -50 -12 -50 9 0 16
-4 16 -9 0 -5 -13 -9 -30 -9 -16 1 -30 6 -30 11 0 6 -8 3 -19 -7 -16 -14 -20
-15 -30 -2 -7 8 -20 12 -28 9 -14 -5 -14 -8 2 -19 14 -11 16 -16 6 -28 -23
-28 -102 10 -143 69 -21 31 -50 52 -32 23 4 -6 3 -8 -3 -5 -6 4 -8 19 -6 34 3
20 2 24 -5 15 -13 -18 -30 30 -43 122 -11 78 6 246 24 246 2 0 2 -49 1 -109z
m576 -70 c0 -37 -40 -147 -71 -196 -65 -103 -146 -178 -221 -206 -43 -16 -57
-17 -75 -8 -34 18 -28 26 22 33 25 4 45 10 46 14 5 46 19 81 19 47 0 -15 2
-16 17 -4 15 13 15 12 4 -9 -11 -21 -11 -23 6 -14 33 18 95 90 88 101 -3 7 -1
10 6 9 14 -3 93 127 125 204 20 50 34 62 34 29z"/>
</g>
</svg>
